<svg xmlns="http://www.w3.org/2000/svg" viewBox="0 -0.5 16 16" shape-rendering="crispEdges">
<metadata>Made with Pixels to Svg https://codepen.io/shshaw/pen/XbxvNj</metadata>
<path stroke="#000000" d="M7 1h4M5 2h2M11 2h2M4 3h1M13 3h1M2 4h14M2 5h1M8 5h2M15 5h1M2 6h1M8 6h2M15 6h1M2 7h1M8 7h2M15 7h1M2 8h2M7 8h1M10 8h1M15 8h1M2 9h1M4 9h3M11 9h5M2 10h1M4 10h1M7 10h1M10 10h1M13 10h1M1 11h2M4 11h3M11 11h2M0 12h1M4 12h1M7 12h4M0 13h1M5 13h1M0 14h1M5 14h1M1 15h4" />
<path stroke="#fdd173" d="M7 2h4M5 3h2" />
<path stroke="#efba42" d="M7 3h6M8 8h2M3 9h1M8 9h2M5 10h1M7 11h3M3 13h2M3 14h2" />
<path stroke="#7a7a7a" d="M3 5h1M14 5h1M3 6h1M6 6h1M14 6h1M6 7h1M11 7h1M14 8h1" />
<path stroke="#fde7b5" d="M4 5h1M4 7h1M4 8h1" />
<path stroke="#faeac5" d="M5 5h1M12 5h1M7 7h1M10 7h1M6 8h1" />
<path stroke="#f6db9c" d="M6 5h2M10 5h2M5 6h1M7 6h1M10 6h1M12 6h1M5 7h1M12 7h1M11 8h2" />
<path stroke="#e1c88b" d="M13 5h1M13 6h1M13 7h1" />
<path stroke="#fef1d4" d="M4 6h1" />
<path stroke="#6d6d6d" d="M11 6h1" />
<path stroke="#b2b2b2" d="M3 7h1M14 7h1" />
<path stroke="#f6cf9c" d="M5 8h1" />
<path stroke="#f4dec1" d="M13 8h1" />
<path stroke="#efa342" d="M7 9h1M10 9h1M6 10h1M11 10h1" />
<path stroke="#e9ac41" d="M3 10h1" />
<path stroke="#ffffff" d="M8 10h2" />
<path stroke="#c79622" d="M12 10h1M10 11h1" />
<path stroke="#e4a22d" d="M3 11h1" />
<path stroke="#e19c23" d="M1 12h3" />
<path stroke="#d4931f" d="M1 13h1" />
<path stroke="#edb43c" d="M2 13h1" />
<path stroke="#ce8a13" d="M1 14h2" />
</svg>