<svg xmlns="http://www.w3.org/2000/svg" viewBox="0 -0.5 10 12" shape-rendering="crispEdges">
<metadata>Made with Pixels to Svg https://codepen.io/shshaw/pen/XbxvNj</metadata>
<path stroke="#000000" d="M1 0h2M7 0h2M0 1h1M3 1h1M6 1h1M9 1h1M0 2h1M3 2h1M6 2h1M9 2h1M0 3h1M3 3h1M6 3h1M9 3h1M0 4h1M3 4h1M6 4h1M9 4h1M0 5h1M3 5h1M6 5h1M9 5h1M0 6h1M3 6h1M6 6h1M9 6h1M1 7h2M7 7h2M1 9h2M7 9h2M0 10h1M3 10h1M6 10h1M9 10h1M1 11h2M7 11h2" />
<path stroke="#fe9898" d="M1 1h1M7 1h1" />
<path stroke="#eb5050" d="M2 1h1M8 1h1M1 2h1M7 2h1M1 3h1M7 3h1M1 4h1M7 4h1M1 5h1M7 5h1M1 6h1M7 6h1M1 10h1M7 10h1" />
<path stroke="#de2b2b" d="M2 2h1M8 2h1M2 3h1M8 3h1M2 4h1M8 4h1M2 5h1M8 5h1M2 6h1M8 6h1M2 10h1M8 10h1" />
</svg>