<svg xmlns="http://www.w3.org/2000/svg" viewBox="0 -0.5 12 10" shape-rendering="crispEdges">
<metadata>Made with Pixels to Svg https://codepen.io/shshaw/pen/XbxvNj</metadata>
<path stroke="#000000" d="M2 0h3M7 0h3M1 1h1M5 1h2M10 1h1M0 2h1M11 2h1M0 3h1M11 3h1M0 4h1M11 4h1M1 5h1M10 5h1M2 6h1M9 6h1M3 7h1M8 7h1M4 8h1M7 8h1M5 9h2" />
<path stroke="#ff567c" d="M2 1h3M1 2h1M1 3h1M1 4h1" />
<path stroke="#ba163a" d="M7 1h3M10 2h1M10 3h1M10 4h1M9 5h1M8 6h1M7 7h1M6 8h1" />
<path stroke="#ffffff" d="M2 2h2M2 3h1M3 5h1" />
<path stroke="#d6264d" d="M4 2h6M3 3h7M2 4h8M2 5h1M4 5h5M3 6h5M4 7h3M5 8h1" />
</svg>