<svg xmlns="http://www.w3.org/2000/svg" viewBox="0 -0.5 16 16" shape-rendering="crispEdges">
<metadata>Made with Pixels to Svg https://codepen.io/shshaw/pen/XbxvNj</metadata>
<path stroke="#000000" d="M6 2h4M4 3h2M3 4h1M12 4h1M3 5h1M12 5h1M2 6h1M14 6h1M2 7h1M5 7h1M10 7h1M13 7h1M2 8h1M13 8h1M2 9h1M13 9h1M3 10h1M7 10h2M12 10h1M3 11h1M12 11h1M4 12h2M10 12h2M6 13h4" />
<path stroke="#9e1d00" d="M11 2h1M13 2h1M10 3h2M13 3h2M10 5h2M13 5h2M11 6h1M13 6h1" />
<path stroke="#bd1c00" d="M6 3h4" />
<path stroke="#c93f16" d="M4 4h2" />
<path stroke="#be380c" d="M6 4h6" />
<path stroke="#d5602b" d="M4 5h1" />
<path stroke="#c95518" d="M5 5h5" />
<path stroke="#de7b3c" d="M3 6h1" />
<path stroke="#d26d22" d="M4 6h7" />
<path stroke="#af5811" d="M12 6h1" />
<path stroke="#eba053" d="M3 7h1" />
<path stroke="#ffffff" d="M4 7h1M6 7h1M9 7h1M11 7h1M4 8h3M9 8h3" />
<path stroke="#de8e30" d="M7 7h2" />
<path stroke="#b97218" d="M12 7h1" />
<path stroke="#fdd173" d="M3 8h1M3 9h1" />
<path stroke="#efba42" d="M7 8h2M4 9h8M4 10h3M9 10h2M4 11h7M6 12h3" />
<path stroke="#c79622" d="M12 8h1M12 9h1M11 10h1M11 11h1M9 12h1" />
</svg>