<svg xmlns="http://www.w3.org/2000/svg" viewBox="0 -0.5 16 16" shape-rendering="crispEdges">
<metadata>Made with Pixels to Svg https://codepen.io/shshaw/pen/XbxvNj</metadata>
<path stroke="#000000" d="M4 2h8M3 3h1M12 3h1M3 4h1M12 4h1M2 5h1M6 5h1M9 5h1M13 5h1M2 6h1M13 6h1M2 7h1M4 7h2M10 7h2M13 7h1M2 8h1M4 8h2M10 8h2M13 8h1M2 9h1M7 9h2M13 9h1M3 10h1M12 10h1M4 11h1M6 11h1M9 11h1M11 11h1M4 12h1M6 12h1M9 12h1M11 12h1M5 13h6" />
<path stroke="#fafafa" d="M4 3h1M4 4h1M3 5h1M3 6h1M3 7h1M3 8h1M3 9h1M4 10h1M5 11h1M5 12h1" />
<path stroke="#f0f0f0" d="M5 3h6M5 4h6M4 5h2M7 5h2M10 5h2M4 6h8M6 7h4M6 8h4M4 9h3M9 9h3M5 10h6M7 11h1M7 12h1" />
<path stroke="#d2d2d2" d="M11 3h1M11 4h1M12 5h1M12 6h1M12 7h1M12 8h1M12 9h1M11 10h1M8 11h1M10 11h1M8 12h1M10 12h1" />
</svg>