<svg xmlns="http://www.w3.org/2000/svg" viewBox="0 -0.5 12 12" shape-rendering="crispEdges">
<metadata>Made with Pixels to Svg https://codepen.io/shshaw/pen/XbxvNj</metadata>
<path stroke="#000000" d="M4 0h4M2 1h2M8 1h2M1 2h1M4 2h1M7 2h1M10 2h1M1 3h1M3 3h1M8 3h1M10 3h1M0 4h1M11 4h1M0 5h1M3 5h1M8 5h1M11 5h1M0 6h1M3 6h1M8 6h1M11 6h1M0 7h1M5 7h2M11 7h1M1 8h1M4 8h1M7 8h1M10 8h1M1 9h1M10 9h1M2 10h2M8 10h2M4 11h4" />
<path stroke="#fdd173" d="M4 1h4M2 2h2M2 3h1M1 4h1M1 5h1M1 6h1M1 7h1" />
<path stroke="#efba42" d="M5 2h2M8 2h2M4 3h4M9 3h1M2 4h8M2 5h1M4 5h4M9 5h1M2 6h1M4 6h4M9 6h1M2 7h3M7 7h3M2 8h2M5 8h2M8 8h1M2 9h7M4 10h3" />
<path stroke="#c79622" d="M10 4h1M10 5h1M10 6h1M10 7h1M9 8h1M9 9h1M7 10h1" />
</svg>