<svg xmlns="http://www.w3.org/2000/svg" viewBox="0 -0.5 16 16" shape-rendering="crispEdges">
<metadata>Made with Pixels to Svg https://codepen.io/shshaw/pen/XbxvNj</metadata>
<path stroke="#000000" d="M8 1h3M7 2h1M11 2h1M6 3h1M11 3h1M5 4h1M11 4h1M4 5h1M11 5h1M3 6h1M11 6h1M2 7h1M11 7h1M2 8h1M11 8h1M3 9h1M11 9h1M4 10h1M11 10h1M5 11h1M11 11h1M6 12h1M11 12h1M7 13h1M11 13h1M8 14h3" />
<path stroke="#ff8235" d="M8 2h3M7 3h1M10 3h1M6 4h1M10 4h1M5 5h1M10 5h1M4 6h1M10 6h1M3 7h1M10 7h1M3 8h1M10 8h1M4 9h1M10 9h1M5 10h1M10 10h1M6 11h1M10 11h1M7 12h1M10 12h1M8 13h3" />
<path stroke="#d45f25" d="M8 3h1M7 4h2M6 5h3M5 6h4M4 7h5" />
<path stroke="#cc571e" d="M9 3h1M9 4h1M9 5h1M9 6h1M9 7h1" />
<path stroke="#c54c1b" d="M4 8h6M5 9h5M6 10h4M7 11h3M8 12h2" />
</svg>