<svg xmlns="http://www.w3.org/2000/svg" viewBox="0 -0.5 32 32" shape-rendering="crispEdges">
<metadata>Made with Pixels to Svg https://codepen.io/shshaw/pen/XbxvNj</metadata>
<path stroke="#000000" d="M9 8h14M8 9h1M23 9h1M7 10h1M24 10h1M7 11h1M24 11h1M7 12h1M24 12h1M7 13h1M24 13h1M7 14h1M24 14h1M7 15h1M24 15h1M7 16h1M24 16h1M7 17h1M24 17h1M7 18h1M24 18h1M7 19h1M24 19h1M7 20h1M24 20h1M7 21h1M24 21h1M8 22h1M23 22h1M9 23h1M12 23h11M9 24h1M11 24h1M9 25h2" />
<path stroke="#cacaca" d="M9 9h1M8 10h1M8 11h1M8 12h1M8 13h1M8 14h1M8 15h1M8 16h1M8 17h1M8 18h1M8 19h1M8 20h1M8 21h1M9 22h1M10 23h1M10 24h1" />
<path stroke="#f3f3f3" d="M10 9h13M9 10h15M9 11h15M9 12h15M9 13h15M9 14h15M9 15h15M9 16h15M9 17h15M9 18h15M9 19h15M9 20h15M9 21h15M10 22h13M11 23h1" />
</svg>