<svg xmlns="http://www.w3.org/2000/svg" viewBox="0 -0.5 16 16" shape-rendering="crispEdges">
<metadata>Made with Pixels to Svg https://codepen.io/shshaw/pen/XbxvNj</metadata>
<path stroke="#000000" d="M1 0h14M0 1h2M14 1h2M0 2h1M6 2h4M15 2h1M0 3h1M4 3h2M10 3h2M15 3h1M0 4h1M3 4h1M12 4h1M15 4h1M0 5h1M3 5h1M12 5h1M15 5h1M0 6h1M2 6h1M13 6h1M15 6h1M0 7h1M2 7h1M13 7h1M15 7h1M0 8h1M2 8h1M13 8h1M15 8h1M0 9h1M2 9h1M13 9h1M15 9h1M0 10h1M3 10h1M12 10h1M15 10h1M0 11h1M3 11h1M12 11h1M15 11h1M0 12h1M4 12h2M10 12h2M15 12h1M0 13h1M6 13h4M15 13h1M0 14h2M14 14h2M1 15h14" />
<path stroke="#cb982c" d="M2 1h12M1 2h5M10 2h4M1 3h3M12 3h2M1 4h2M13 4h1M1 5h2M13 5h1M1 6h1M1 7h1M1 8h1M1 9h1M1 10h2M13 10h1M1 11h2M13 11h1M1 12h3M12 12h2M1 13h5M10 13h3" />
<path stroke="#b38625" d="M14 2h1M14 3h1M14 4h1M14 5h1M14 6h1M14 7h1M14 8h1M14 9h1M14 10h1M14 11h1M14 12h1M13 13h2M2 14h12" />
<path stroke="#949494" d="M6 3h4M4 4h8M4 5h1M6 5h4M11 5h1M3 6h10M3 7h2M6 7h4M11 7h2M3 8h2M6 8h4M11 8h2M3 9h10M4 10h2M7 10h2M10 10h2M4 11h3M9 11h3M6 12h4" />
<path stroke="#626262" d="M5 5h1M10 5h1M5 7h1M10 7h1M5 8h1M10 8h1M6 10h1M9 10h1M7 11h2" />
</svg>