<svg xmlns="http://www.w3.org/2000/svg" viewBox="0 -0.5 64 32" shape-rendering="crispEdges">
<metadata>Made with Pixels to Svg https://codepen.io/shshaw/pen/XbxvNj</metadata>
<path stroke="#000000" d="M12 5h7M11 6h1M19 6h1M44 6h7M10 7h1M20 7h1M43 7h1M51 7h1M10 8h1M20 8h1M42 8h1M52 8h1M10 9h1M20 9h1M42 9h1M52 9h1M10 10h1M20 10h1M42 10h1M52 10h1M10 11h1M20 11h1M42 11h1M52 11h1M10 12h1M20 12h1M42 12h1M52 12h1M10 13h2M19 13h2M42 13h1M52 13h1M11 14h1M19 14h1M42 14h2M51 14h2M12 15h1M18 15h1M43 15h1M51 15h1M13 16h1M17 16h1M44 16h1M50 16h1M12 17h1M18 17h1M43 17h2M50 17h2M11 18h1M19 18h1M42 18h1M52 18h1M10 19h1M20 19h1M41 19h1M53 19h1M10 20h1M20 20h1M39 20h2M43 20h1M51 20h1M54 20h2M10 21h1M20 21h1M39 21h1M42 21h2M51 21h2M55 21h1M9 22h2M20 22h2M39 22h5M51 22h5M9 23h1M21 23h1M9 24h13M12 25h1M18 25h1M44 25h7M12 26h1M15 26h1M18 26h1M44 26h1M47 26h1M50 26h1M12 27h1M15 27h1M18 27h1M44 27h1M47 27h1M50 27h1M12 28h1M15 28h1M18 28h1M44 28h1M47 28h1M50 28h1M11 29h9M43 29h9M11 30h9M43 30h9" />
<path stroke="#0061c3" d="M12 6h7M11 7h9M44 7h7M11 8h6M18 8h2M43 8h9M11 9h4M18 9h2M43 9h6M50 9h2M11 10h1M19 10h1M43 10h4M50 10h2M43 11h1M51 11h1M15 16h1M14 17h3M46 17h3M15 18h1M47 18h1" />
<path stroke="#e9d2bb" d="M17 8h1M15 9h3M49 9h1M12 10h7M47 10h3M11 11h2M14 11h3M18 11h2M44 11h7M11 12h2M14 12h3M18 12h2M43 12h2M46 12h3M50 12h2M12 13h7M43 13h2M46 13h3M50 13h2M12 14h1M18 14h1M44 14h3M48 14h3M13 15h1M17 15h1M44 15h3M48 15h3M45 16h2M48 16h2M40 21h2M53 21h2M10 23h2M19 23h2" />
<path stroke="#873222" d="M13 11h1M17 11h1M13 12h1M17 12h1M45 12h1M49 12h1M45 13h1M49 13h1" />
<path stroke="#df7b6b" d="M13 14h1M17 14h1M14 15h3M47 15h1M47 16h1" />
<path stroke="#ffffff" d="M14 14h3M47 14h1" />
<path stroke="#b3b3b3" d="M14 16h1M16 16h1M15 21h1M47 21h1M15 23h1M47 23h1" />
<path stroke="#382723" d="M13 17h1M17 17h1M45 17h1M49 17h1M14 18h1M16 18h1M46 18h1M48 18h1M15 19h1M43 19h1M47 19h1M51 19h1M12 20h1M18 20h1M42 20h1M44 20h1M50 20h1M52 20h1M12 21h1M18 21h1M44 21h1M50 21h1M12 22h1M18 22h1M44 22h1M50 22h1M12 23h1M18 23h1M44 23h1M50 23h1M44 24h1M50 24h1" />
<path stroke="#665653" d="M12 18h2M17 18h2M43 18h3M49 18h3M11 19h4M16 19h4M42 19h1M44 19h3M48 19h3M52 19h1M11 20h1M13 20h5M19 20h1M41 20h1M45 20h5M53 20h1M11 21h1M13 21h2M16 21h2M19 21h1M45 21h2M48 21h2M11 22h1M13 22h5M19 22h1M45 22h5M13 23h2M16 23h2M45 23h2M48 23h2M45 24h5" />
<path stroke="#4e413f" d="M13 25h4M13 26h1M16 26h1M45 26h1M48 26h1M13 27h1M16 27h1M45 27h1M48 27h1M13 28h1M16 28h1M45 28h1M48 28h1" />
<path stroke="#736663" d="M17 25h1M14 26h1M17 26h1M46 26h1M49 26h1M14 27h1M17 27h1M46 27h1M49 27h1M14 28h1M17 28h1M46 28h1M49 28h1" />
</svg>