<svg xmlns="http://www.w3.org/2000/svg" viewBox="0 -0.5 64 32" shape-rendering="crispEdges">
<metadata>Made with Pixels to Svg https://codepen.io/shshaw/pen/XbxvNj</metadata>
<path stroke="#000000" d="M12 5h7M11 6h1M19 6h1M44 6h7M10 7h1M20 7h1M43 7h1M51 7h1M10 8h1M20 8h1M42 8h1M52 8h1M9 9h1M21 9h1M42 9h1M52 9h1M9 10h1M21 10h1M41 10h1M53 10h1M9 11h1M21 11h1M41 11h1M53 11h1M9 12h1M21 12h1M41 12h1M53 12h1M9 13h1M21 13h1M41 13h1M53 13h1M9 14h1M21 14h1M41 14h1M53 14h1M9 15h1M21 15h1M41 15h1M53 15h1M9 16h1M21 16h1M41 16h1M53 16h1M9 17h1M21 17h1M41 17h1M53 17h1M8 18h1M22 18h1M41 18h1M53 18h1M8 19h1M22 19h1M40 19h1M54 19h1M8 20h1M22 20h1M40 20h1M54 20h1M8 21h1M23 21h1M39 21h2M43 21h1M54 21h2M8 22h2M21 22h2M39 22h1M42 22h2M55 22h1M9 23h1M21 23h1M39 23h5M51 23h1M53 23h3M9 24h4M18 24h4M43 24h1M51 24h2M12 25h1M18 25h1M44 25h1M50 25h1M12 26h1M18 26h1M44 26h1M50 26h1M12 27h1M18 27h1M44 27h1M50 27h1M12 28h1M18 28h1M44 28h1M50 28h1M12 29h1M18 29h1M44 29h1M50 29h1M12 30h7M44 30h7" />
<path stroke="#e96329" d="M12 6h7M11 7h9M44 7h7M11 8h9M43 8h9M10 9h3M15 9h6M43 9h9M11 10h1M16 10h5M42 10h3M47 10h6M19 11h2M43 11h1M48 11h5M20 12h1M51 12h2M20 13h1M52 13h1M20 14h1M52 14h1M19 15h2M52 15h1M18 16h3M51 16h2M18 17h3M50 17h3M18 18h4M50 18h3M18 19h4M50 19h4M19 20h2M50 20h4M19 21h2M51 21h2M20 22h1M51 22h2M52 23h1" />
<path stroke="#f1cdbf" d="M13 9h2M12 10h4M45 10h2M11 11h2M14 11h3M18 11h1M44 11h4M11 12h2M14 12h3M18 12h2M43 12h2M46 12h3M50 12h1M12 13h7M43 13h2M46 13h3M50 13h2M12 14h3M16 14h3M44 14h7M13 15h5M44 15h3M48 15h3M45 16h5M11 22h1M19 22h1M10 23h2M19 23h2M17 25h1M16 26h2M49 26h1M13 27h2M16 27h2M48 27h2M13 28h2M16 28h2M45 28h2M48 28h2M14 29h1M16 29h1M46 29h1M48 29h1" />
<path stroke="#a93702" d="M10 10h1M10 11h1M42 11h1M10 12h1M42 12h1M10 13h2M42 13h1M10 14h2M42 14h2M10 15h3M42 15h2M10 16h4M42 16h3M10 17h2M42 17h2M9 18h2M42 18h1M9 19h1M41 19h1M9 20h1M9 21h1" />
<path stroke="#008c00" d="M13 11h1M17 11h1M13 12h1M17 12h1M45 12h1M49 12h1M45 13h1M49 13h1" />
<path stroke="#d84903" d="M19 13h1M19 14h1M51 14h1M18 15h1M51 15h1M17 16h1M50 16h1M49 17h1M53 21h1" />
<path stroke="#fb7c6b" d="M15 14h1M47 15h1" />
<path stroke="#ffb392" d="M14 16h3M15 17h1M46 17h3M47 18h1M15 27h1M15 28h1M47 28h1M15 29h1M47 29h1" />
<path stroke="#8d2b00" d="M12 17h1M44 17h2M11 18h1M43 18h1M10 19h1M42 19h1M10 20h1M21 20h1M41 20h1M10 21h1M21 21h2M10 22h1" />
<path stroke="#703f2c" d="M13 17h1M17 17h1M13 18h2M16 18h2M45 18h1M49 18h1M14 19h3M45 19h2M48 19h2M15 20h1M46 20h3M13 21h5M47 21h1M13 22h5M45 22h5M45 23h5M13 24h4M13 25h4M45 25h4M13 26h3M45 26h4M45 27h3" />
<path stroke="#814f3c" d="M14 17h1M16 17h1M46 18h1M48 18h1" />
<path stroke="#5e311f" d="M12 18h1M44 18h1M12 19h1M44 19h1M12 20h1M18 20h1M44 20h1M12 21h1M18 21h1M44 21h1M50 21h1M12 22h1M18 22h1M44 22h1M50 22h1M12 23h1M18 23h1M44 23h1M50 23h1M44 24h1M50 24h1" />
<path stroke="#a27c6c" d="M15 18h1M47 19h1" />
<path stroke="#f2d3bb" d="M11 19h1M43 19h1M11 20h1M42 20h2M11 21h1M41 21h2M40 22h2M53 22h2" />
<path stroke="#6a3927" d="M13 19h1M17 19h1M45 20h1M49 20h1" />
<path stroke="#663625" d="M13 20h2M16 20h2M45 21h2M48 21h2" />
<path stroke="#3d1c10" d="M13 23h1M17 23h1M45 24h1M49 24h1" />
<path stroke="#dc9424" d="M14 23h3M46 24h3" />
<path stroke="#824b35" d="M17 24h1M49 25h1" />
<path stroke="#562c1c" d="M13 29h1M17 29h1M45 29h1M49 29h1" />
</svg>