<svg xmlns="http://www.w3.org/2000/svg" viewBox="0 -0.5 64 32" shape-rendering="crispEdges">
<metadata>Made with Pixels to Svg https://codepen.io/shshaw/pen/XbxvNj</metadata>
<path stroke="#361600" d="M12 6h2M17 6h2M11 7h2M18 7h2M44 7h2M49 7h2M11 8h1M19 8h1M43 8h2M50 8h2M10 9h1M19 9h2M43 9h1M51 9h1M10 10h1M20 10h1M42 10h1M51 10h2M11 11h1M19 11h1M42 11h1M52 11h1M11 12h1M19 12h1M43 12h1M51 12h1M10 13h1M20 13h1M43 13h1M51 13h1M10 14h1M42 14h1M52 14h1M9 15h1M20 15h1M42 15h1M9 16h1M11 16h2M18 16h3M22 16h1M41 16h1M52 16h1M8 17h1M10 17h2M19 17h1M21 17h2M41 17h1M43 17h1M51 17h2M54 17h1M8 18h1M10 18h1M20 18h1M22 18h1M40 18h1M42 18h1M53 18h2M8 19h2M22 19h1M40 19h1M54 19h1M9 20h1M21 20h1M40 20h2M54 20h1M41 21h1M53 21h1" />
<path stroke="#ffffff" d="M14 6h1M16 6h1M13 7h4M46 7h1M48 7h1M12 8h1M14 8h5M45 8h4M11 9h2M44 9h1M46 9h5M43 10h2M14 19h1M17 19h1M13 20h1M15 20h3M14 21h3M14 22h2" />
<path stroke="#ececec" d="M15 6h1M17 7h1M47 7h1M13 8h1M49 8h1M18 9h1M45 9h1M11 10h1M19 10h1M50 10h1M43 11h1M51 11h1" />
<path stroke="#cc8250" d="M13 9h5M13 10h5M45 10h5M12 11h1M14 11h3M18 11h1M45 11h5M10 12h1M12 12h1M18 12h1M20 12h1M44 12h1M46 12h3M50 12h1M13 13h5M42 13h1M44 13h1M50 13h1M52 13h1M12 14h3M16 14h3M45 14h5M13 15h5M44 15h3M48 15h3M45 16h5" />
<path stroke="#1f0c00" d="M12 10h1M18 10h1M44 11h1M50 11h1" />
<path stroke="#a35927" d="M10 11h1M20 11h1M42 12h1M52 12h1M14 16h3M47 17h1" />
<path stroke="#2d1600" d="M13 11h1M17 11h1M45 12h1M49 12h1" />
<path stroke="#432406" d="M13 12h1M17 12h1M45 13h1M49 13h1" />
<path stroke="#c76043" d="M14 12h3M12 13h1M18 13h1M46 13h3M44 14h1M50 14h1" />
<path stroke="#160800" d="M11 13h1M19 13h1M43 14h1M51 14h1M12 15h1M18 15h1M13 16h1M17 16h1M44 16h1M50 16h1M44 17h2M49 17h2" />
<path stroke="#d7d7d7" d="M11 14h1M19 14h1M43 15h1M51 15h1" />
<path stroke="#ac4e29" d="M15 14h1M47 15h1" />
<path stroke="#240e00" d="M20 14h1M10 15h1M21 15h1M52 15h1M10 16h1M21 16h1M42 16h1M53 16h1M9 17h1M20 17h1M42 17h1M53 17h1M9 18h1M21 18h1M41 18h1M52 18h1M21 19h1M41 19h1M53 19h1M53 20h1" />
<path stroke="#bc3743" d="M11 15h1M19 15h1M43 16h1M51 16h1" />
<path stroke="#000000" d="M12 17h1M18 17h1M11 18h1M19 18h1M43 18h1M46 18h3M51 18h1M10 19h1M20 19h1M42 19h1M45 19h1M47 19h1M49 19h1M52 19h1M10 20h1M20 20h1M42 20h1M44 20h2M47 20h1M49 20h4M10 21h1M20 21h1M42 21h1M47 21h1M52 21h1M9 22h2M20 22h2M43 22h9M9 23h1M21 23h1M9 24h4M18 24h4M44 24h1M50 24h1M12 25h1M18 25h1M44 25h1M50 25h1M12 26h1M18 26h1M44 26h1M50 26h1M12 27h1M18 27h1M44 27h1M50 27h1M11 28h1M19 28h1M43 28h1M51 28h1M10 29h1M15 29h1M20 29h1M42 29h1M47 29h1M52 29h1M10 30h1M15 30h1M20 30h1M42 30h1M47 30h1M52 30h1" />
<path stroke="#261311" d="M13 17h1M13 18h1M18 18h1M45 18h1M50 18h1M11 20h1M19 20h1M43 20h1M17 21h1M13 23h1M45 23h1" />
<path stroke="#2d1c1a" d="M14 17h1M16 17h2M46 17h1M48 17h1M12 18h1M14 18h1M16 18h2M44 18h1M49 18h1M12 19h1M15 19h1M19 19h1M44 19h1M51 19h1M13 21h1M13 22h1M17 22h1M14 23h3M46 23h3" />
<path stroke="#c88b5a" d="M15 17h1M46 19h1M48 19h1M46 20h1M48 20h1M11 21h1M19 21h1M43 21h4M48 21h4M11 22h1M19 22h1M10 23h2M19 23h2" />
<path stroke="#3b2926" d="M15 18h1M11 19h1M18 19h1M43 19h1M50 19h1M17 23h1M49 23h1" />
<path stroke="#ebebeb" d="M13 19h1M16 19h1M14 20h1M16 22h1" />
<path stroke="#1a0d0c" d="M12 20h1M18 20h1M12 21h1M18 21h1M12 22h1M18 22h1M12 23h1M18 23h1M44 23h1M50 23h1" />
<path stroke="#edccb2" d="M13 24h1M17 24h1M45 24h1M49 24h1M14 26h1M16 26h1M46 26h1M48 26h1M13 27h1M45 27h1M17 28h1M49 28h1" />
<path stroke="#e5bb98" d="M14 24h2M46 24h2M13 25h5M45 25h5M13 26h1M17 26h1M45 26h1M49 26h1M14 27h1M16 27h1M46 27h1M48 27h1M12 28h1M14 28h1M16 28h1M18 28h1M44 28h1M46 28h1M48 28h1M50 28h1" />
<path stroke="#daa981" d="M16 24h1M48 24h1M17 27h1M49 27h1M13 28h1M45 28h1" />
<path stroke="#967357" d="M15 26h1M47 26h1M15 27h1M47 27h1M15 28h1M47 28h1" />
<path stroke="#dbdbdb" d="M11 29h1M43 29h1M19 30h1M51 30h1" />
<path stroke="#151515" d="M12 29h2M16 29h1M18 29h1M44 29h2M48 29h1M50 29h1M13 30h1M17 30h1M45 30h1M49 30h1" />
<path stroke="#262626" d="M14 29h1M17 29h1M46 29h1M49 29h1M12 30h1M18 30h1M44 30h1M50 30h1" />
<path stroke="#cecece" d="M19 29h1M51 29h1M11 30h1M14 30h1M16 30h1M43 30h1M46 30h1M48 30h1" />
</svg>