<svg xmlns="http://www.w3.org/2000/svg" viewBox="0 -0.5 128 32" shape-rendering="crispEdges">
<metadata>Made with Pixels to Svg https://codepen.io/shshaw/pen/XbxvNj</metadata>
<path stroke="#000000" d="M14 3h5M78 3h5M11 4h10M47 4h5M75 4h10M109 4h5M10 5h4M15 5h2M18 5h4M44 5h10M74 5h4M79 5h2M82 5h4M106 5h10M10 6h10M21 6h1M43 6h4M48 6h2M51 6h4M74 6h10M85 6h1M105 6h4M110 6h2M113 6h4M9 7h4M14 7h1M16 7h7M43 7h10M54 7h1M73 7h4M78 7h1M80 7h7M105 7h10M116 7h1M8 8h2M11 8h4M16 8h7M42 8h4M47 8h1M49 8h7M72 8h2M75 8h4M80 8h7M104 8h4M109 8h1M111 8h7M9 9h5M18 9h1M20 9h3M41 9h2M44 9h4M49 9h7M73 9h5M82 9h1M84 9h3M103 9h2M106 9h4M111 9h7M8 10h3M22 10h1M42 10h5M51 10h1M53 10h3M72 10h3M86 10h1M104 10h5M113 10h1M115 10h3M8 11h1M13 11h1M17 11h1M21 11h2M41 11h3M55 11h1M72 11h1M77 11h1M81 11h1M85 11h2M103 11h3M117 11h1M9 12h1M21 12h2M41 12h1M46 12h1M50 12h1M54 12h2M73 12h1M85 12h2M103 12h1M108 12h1M112 12h1M116 12h2M9 13h3M19 13h1M21 13h1M42 13h1M54 13h2M73 13h3M83 13h1M85 13h1M104 13h1M116 13h2M10 14h2M19 14h2M42 14h3M52 14h1M54 14h1M74 14h2M83 14h2M104 14h3M114 14h1M116 14h1M12 15h1M18 15h1M43 15h2M52 15h2M76 15h1M82 15h1M105 15h2M114 15h2M13 16h1M17 16h1M45 16h1M51 16h1M77 16h1M81 16h1M107 16h1M113 16h1M12 17h1M18 17h1M44 17h2M51 17h2M76 17h1M82 17h1M106 17h2M113 17h2M11 18h1M19 18h1M43 18h1M53 18h1M75 18h1M83 18h1M105 18h1M115 18h1M10 19h1M20 19h1M42 19h1M54 19h1M74 19h1M84 19h1M104 19h1M116 19h1M10 20h1M20 20h1M41 20h1M44 20h1M52 20h1M55 20h1M74 20h1M84 20h1M103 20h1M106 20h1M114 20h1M117 20h1M10 21h1M20 21h1M40 21h1M43 21h1M53 21h1M56 21h1M74 21h1M84 21h1M102 21h1M105 21h1M115 21h1M118 21h1M9 22h2M20 22h2M40 22h3M54 22h3M73 22h2M84 22h2M102 22h3M116 22h3M9 23h1M21 23h1M73 23h1M85 23h1M9 24h4M18 24h4M73 24h4M82 24h4M12 25h1M18 25h1M45 25h1M51 25h1M76 25h1M82 25h1M107 25h1M113 25h1M12 26h1M18 26h1M45 26h1M51 26h1M76 26h1M82 26h1M107 26h1M113 26h1M12 27h1M18 27h1M45 27h1M51 27h1M76 27h1M82 27h1M107 27h1M113 27h1M12 28h1M18 28h1M45 28h1M51 28h1M76 28h1M82 28h1M107 28h1M113 28h1" />
<path stroke="#0e0000" d="M14 5h1M78 5h1M20 6h1M47 6h1M84 6h1M109 6h1M13 7h1M15 7h1M53 7h1M77 7h1M79 7h1M115 7h1M46 8h1M48 8h1M108 8h1M110 8h1M19 9h1M83 9h1M52 10h1M114 10h1" />
<path stroke="#0e0505" d="M17 5h1M81 5h1M50 6h1M112 6h1M10 8h1M74 8h1M43 9h1M105 9h1M11 10h1M21 10h1M75 10h1M85 10h1M44 11h1M54 11h1M106 11h1M116 11h1" />
<path stroke="#1c0505" d="M15 8h1M79 8h1M15 9h3M48 9h1M79 9h3M110 9h1M18 10h3M48 10h3M82 10h3M110 10h3M51 11h3M113 11h3" />
<path stroke="#181717" d="M8 9h1M72 9h1M41 10h1M103 10h1M9 11h1M73 11h1M42 12h1M104 12h1" />
<path stroke="#654329" d="M14 9h1M78 9h1M12 10h6M47 10h1M76 10h6M109 10h1M12 11h1M14 11h3M18 11h1M45 11h6M76 11h1M78 11h3M82 11h1M107 11h6M10 12h1M12 12h1M18 12h1M20 12h1M45 12h1M47 12h3M51 12h1M74 12h1M76 12h1M82 12h1M84 12h1M107 12h1M109 12h3M113 12h1M14 13h3M43 13h1M45 13h1M51 13h1M53 13h1M78 13h3M105 13h1M107 13h1M113 13h1M115 13h1M12 14h2M16 14h3M47 14h3M76 14h2M80 14h3M109 14h3M13 15h5M45 15h2M49 15h3M77 15h5M107 15h2M111 15h3M46 16h5M108 16h5M14 17h3M78 17h3M11 20h1M19 20h1M42 20h2M53 20h2M75 20h1M83 20h1M104 20h2M115 20h2M11 21h1M19 21h1M41 21h2M54 21h2M75 21h1M83 21h1M103 21h2M116 21h2M11 22h1M19 22h1M75 22h1M83 22h1M10 23h2M13 23h5M19 23h2M74 23h2M77 23h5M83 23h2M13 28h1M46 28h1M77 28h1M108 28h1M12 29h1M14 29h1M45 29h1M47 29h1M76 29h1M78 29h1M107 29h1M109 29h1" />
<path stroke="#482910" d="M10 11h2M19 11h2M74 11h2M83 11h2M11 12h1M19 12h1M43 12h2M52 12h2M75 12h1M83 12h1M105 12h2M114 12h2M44 13h1M52 13h1M106 13h1M114 13h1M14 16h3M78 16h3M47 17h3M109 17h3" />
<path stroke="#271100" d="M13 12h1M17 12h1M77 12h1M81 12h1M46 13h1M50 13h1M108 13h1M112 13h1" />
<path stroke="#622f19" d="M14 12h3M78 12h3M12 13h2M17 13h2M47 13h3M76 13h2M81 13h2M109 13h3M45 14h2M50 14h2M107 14h2M112 14h2" />
<path stroke="#271817" d="M20 13h1M84 13h1M53 14h1M115 14h1" />
<path stroke="#49170a" d="M14 14h2M78 14h2M47 15h2M109 15h2" />
<path stroke="#9d0000" d="M13 17h1M17 17h1M77 17h1M81 17h1M13 18h2M16 18h2M46 18h2M50 18h1M77 18h2M80 18h2M108 18h2M112 18h1M11 19h3M15 19h2M18 19h2M46 19h2M49 19h2M75 19h3M79 19h2M82 19h2M108 19h2M111 19h2M14 20h2M17 20h1M45 20h2M48 20h2M51 20h1M78 20h2M81 20h1M107 20h2M110 20h2M113 20h1M13 21h5M47 21h2M50 21h1M77 21h5M109 21h2M112 21h1M14 22h4M46 22h5M78 22h4M108 22h5M47 23h4M109 23h4" />
<path stroke="#900000" d="M46 17h1M50 17h1M108 17h1M112 17h1M12 18h1M18 18h1M48 18h1M51 18h1M76 18h1M82 18h1M110 18h1M113 18h1M14 19h1M43 19h3M51 19h3M78 19h1M105 19h3M113 19h3M16 20h1M47 20h1M80 20h1M109 20h1M49 21h1M111 21h1M13 22h1M77 22h1M46 23h1M108 23h1M19 29h1M52 29h1M83 29h1M114 29h1M11 30h3M16 30h2M44 30h3M49 30h2M75 30h3M80 30h2M106 30h3M111 30h2" />
<path stroke="#ab0000" d="M15 18h1M44 18h2M49 18h1M52 18h1M79 18h1M106 18h2M111 18h1M114 18h1M17 19h1M48 19h1M81 19h1M110 19h1M13 20h1M50 20h1M77 20h1M112 20h1M46 21h1M108 21h1M11 29h1M44 29h1M75 29h1M106 29h1M18 30h1M51 30h1M82 30h1M113 30h1" />
<path stroke="#4a0000" d="M12 20h1M18 20h1M76 20h1M82 20h1M12 21h1M18 21h1M45 21h1M51 21h1M76 21h1M82 21h1M107 21h1M113 21h1M12 22h1M18 22h1M45 22h1M51 22h1M76 22h1M82 22h1M107 22h1M113 22h1M45 23h1M51 23h1M107 23h1M113 23h1M15 29h1M48 29h1M79 29h1M110 29h1M15 30h1M48 30h1M79 30h1M110 30h1" />
<path stroke="#391b03" d="M12 23h1M18 23h1M76 23h1M82 23h1" />
<path stroke="#3a001b" d="M13 24h5M45 24h7M77 24h5M107 24h7M13 27h1M46 27h1M77 27h1M108 27h1M14 28h2M47 28h2M78 28h2M109 28h2M16 29h3M49 29h3M80 29h3M111 29h3" />
<path stroke="#65002f" d="M13 25h1M15 25h1M17 25h1M46 25h1M48 25h1M50 25h1M77 25h1M79 25h1M81 25h1M108 25h1M110 25h1M112 25h1M14 26h3M47 26h3M78 26h3M109 26h3M15 27h2M48 27h2M79 27h2M110 27h2M17 28h1M50 28h1M81 28h1M112 28h1" />
<path stroke="#720036" d="M14 25h1M47 25h1M78 25h1M109 25h1M17 26h1M50 26h1M81 26h1M112 26h1M16 28h1M49 28h1M80 28h1M111 28h1" />
<path stroke="#580029" d="M16 25h1M49 25h1M80 25h1M111 25h1M13 26h1M46 26h1M77 26h1M108 26h1M14 27h1M17 27h1M47 27h1M50 27h1M78 27h1M81 27h1M109 27h1M112 27h1" />
<path stroke="#790000" d="M13 29h1M46 29h1M77 29h1M108 29h1M14 30h1M19 30h1M47 30h1M52 30h1M78 30h1M83 30h1M109 30h1M114 30h1" />
</svg>