<svg xmlns="http://www.w3.org/2000/svg" viewBox="0 -0.5 128 32" shape-rendering="crispEdges">
<metadata>Made with Pixels to Svg https://codepen.io/shshaw/pen/XbxvNj</metadata>
<path stroke="#270d00" d="M13 5h5M77 5h5M10 6h10M46 6h5M74 6h10M108 6h5M10 7h11M43 7h10M74 7h11M105 7h10M9 8h13M43 8h11M73 8h13M105 8h11M8 9h5M16 9h7M42 9h13M72 9h5M80 9h7M104 9h13M8 10h4M18 10h5M41 10h5M49 10h7M72 10h4M82 10h5M103 10h5M111 10h7M8 11h2M21 11h2M41 11h4M51 11h5M72 11h2M85 11h2M103 11h4M113 11h5M9 12h1M21 12h1M41 12h2M54 12h2M73 12h1M85 12h1M103 12h2M116 12h2M9 13h1M21 13h1M42 13h1M54 13h1M73 13h1M85 13h1M104 13h1M116 13h1M8 14h3M20 14h3M42 14h1M54 14h1M72 14h3M84 14h3M104 14h1M116 14h1M8 15h4M19 15h4M41 15h3M53 15h3M72 15h4M83 15h4M103 15h3M115 15h3M8 16h5M18 16h5M41 16h4M52 16h4M72 16h5M82 16h5M103 16h4M114 16h4M8 17h4M13 17h1M17 17h1M19 17h4M41 17h3M46 17h1M50 17h1M53 17h3M72 17h4M77 17h1M81 17h1M83 17h4M103 17h3M108 17h1M112 17h1M115 17h3M9 18h2M12 18h1M14 18h1M16 18h1M18 18h1M20 18h2M41 18h2M45 18h2M50 18h2M54 18h2M73 18h2M76 18h1M78 18h1M80 18h1M82 18h1M84 18h2M103 18h2M107 18h2M112 18h2M116 18h2M12 19h1M15 19h1M18 19h1M45 19h1M47 19h1M49 19h1M51 19h1M76 19h1M79 19h1M82 19h1M107 19h1M109 19h1M111 19h1M113 19h1M12 20h1M18 20h1M45 20h1M48 20h1M51 20h1M76 20h1M82 20h1M107 20h1M110 20h1M113 20h1M12 21h1M15 21h1M18 21h1M45 21h1M51 21h1M76 21h1M79 21h1M82 21h1M107 21h1M113 21h1M12 22h1M18 22h1M45 22h1M48 22h1M51 22h1M76 22h1M82 22h1M107 22h1M110 22h1M113 22h1M12 23h1M15 23h1M18 23h1M45 23h1M51 23h1M76 23h1M79 23h1M82 23h1M107 23h1M113 23h1M13 24h5M45 24h7M77 24h5M107 24h7" />
<path stroke="#ab6840" d="M13 9h3M77 9h3M12 10h6M46 10h3M76 10h6M108 10h3M12 11h1M14 11h3M18 11h1M45 11h6M76 11h1M78 11h3M82 11h1M107 11h6M10 12h1M12 12h1M14 12h3M18 12h1M20 12h1M45 12h1M47 12h3M51 12h1M74 12h1M76 12h1M78 12h3M82 12h1M84 12h1M107 12h1M109 12h3M113 12h1M13 13h5M43 13h1M45 13h1M47 13h3M51 13h1M53 13h1M77 13h5M105 13h1M107 13h1M109 13h3M113 13h1M115 13h1M12 14h2M16 14h3M46 14h5M76 14h2M80 14h3M108 14h5M13 15h5M45 15h2M49 15h3M77 15h5M107 15h2M111 15h3M46 16h5M108 16h5M15 17h1M79 17h1M48 18h1M110 18h1M43 19h1M53 19h1M105 19h1M115 19h1M42 20h2M53 20h2M104 20h2M115 20h2M11 21h1M19 21h1M41 21h2M54 21h2M75 21h1M83 21h1M103 21h2M116 21h2M11 22h1M19 22h1M75 22h1M83 22h1M10 23h2M19 23h2M74 23h2M83 23h2" />
<path stroke="#844017" d="M10 11h2M19 11h2M74 11h2M83 11h2M11 12h1M19 12h1M43 12h2M52 12h2M75 12h1M83 12h1M105 12h2M114 12h2M44 13h1M52 13h1M106 13h1M114 13h1M14 16h3M78 16h3M47 17h3M109 17h3" />
<path stroke="#1c2d00" d="M13 11h1M17 11h1M77 11h1M81 11h1M46 12h1M50 12h1M108 12h1M112 12h1" />
<path stroke="#284000" d="M13 12h1M17 12h1M77 12h1M81 12h1M46 13h1M50 13h1M108 13h1M112 13h1M14 17h1M16 17h1M78 17h1M80 17h1M15 18h1M44 18h1M47 18h1M49 18h1M52 18h1M79 18h1M106 18h1M109 18h1M111 18h1M114 18h1M11 19h1M19 19h1M44 19h1M48 19h1M52 19h1M75 19h1M83 19h1M106 19h1M110 19h1M114 19h1M11 20h1M19 20h1M75 20h1M83 20h1" />
<path stroke="#000000" d="M10 13h2M19 13h2M74 13h2M83 13h2M11 14h1M19 14h1M43 14h2M52 14h2M75 14h1M83 14h1M105 14h2M114 14h2M12 15h1M18 15h1M44 15h1M52 15h1M76 15h1M82 15h1M106 15h1M114 15h1M13 16h1M17 16h1M45 16h1M51 16h1M77 16h1M81 16h1M107 16h1M113 16h1M12 17h1M18 17h1M44 17h2M51 17h2M76 17h1M82 17h1M106 17h2M113 17h2M11 18h1M19 18h1M43 18h1M53 18h1M75 18h1M83 18h1M105 18h1M115 18h1M10 19h1M20 19h1M42 19h1M54 19h1M74 19h1M84 19h1M104 19h1M116 19h1M10 20h1M20 20h1M41 20h1M44 20h1M52 20h1M55 20h1M74 20h1M84 20h1M103 20h1M106 20h1M114 20h1M117 20h1M10 21h1M20 21h1M40 21h1M43 21h1M53 21h1M56 21h1M74 21h1M84 21h1M102 21h1M105 21h1M115 21h1M118 21h1M9 22h2M20 22h2M40 22h3M54 22h3M73 22h2M84 22h2M102 22h3M116 22h3M9 23h1M21 23h1M73 23h1M85 23h1M9 24h4M18 24h4M73 24h4M82 24h4M12 25h1M18 25h1M45 25h1M51 25h1M76 25h1M82 25h1M107 25h1M113 25h1M12 26h1M18 26h1M45 26h1M51 26h1M76 26h1M82 26h1M107 26h1M113 26h1M12 27h1M15 27h1M18 27h1M45 27h1M48 27h1M51 27h1M76 27h1M79 27h1M82 27h1M107 27h1M110 27h1M113 27h1M12 28h1M15 28h1M18 28h1M45 28h1M48 28h1M51 28h1M76 28h1M79 28h1M82 28h1M107 28h1M110 28h1M113 28h1M15 29h1M19 29h1M48 29h1M52 29h1M79 29h1M83 29h1M110 29h1M114 29h1M15 30h1M19 30h1M48 30h1M52 30h1M79 30h1M83 30h1M110 30h1M114 30h1" />
<path stroke="#923023" d="M12 13h1M18 13h1M76 13h1M82 13h1M45 14h1M51 14h1M107 14h1M113 14h1" />
<path stroke="#7b2b0f" d="M14 14h2M78 14h2M47 15h2M109 15h2" />
<path stroke="#491c03" d="M13 18h1M77 18h1M46 19h1M108 19h1M78 20h1M80 21h1M109 21h1M111 22h1M17 23h1M81 23h1" />
<path stroke="#582204" d="M17 18h1M81 18h1M13 19h1M17 19h1M50 19h1M77 19h1M81 19h1M112 19h1M13 20h1M15 20h1M46 20h1M50 20h1M77 20h1M79 20h2M108 20h1M112 20h1M13 21h1M46 21h1M48 21h1M77 21h2M108 21h1M110 21h2M15 22h1M17 22h1M46 22h1M78 22h4M108 22h2M13 23h1M48 23h1M50 23h1M77 23h2M80 23h1M109 23h4" />
<path stroke="#88520e" d="M14 19h1M16 19h1M47 20h1M49 20h1" />
<path stroke="#633115" d="M78 19h1M80 19h1M17 20h1M81 20h1M109 20h1M111 20h1M17 21h1M50 21h1M81 21h1M112 21h1M13 22h1M50 22h1M77 22h1M112 22h1M46 23h1M108 23h1" />
<path stroke="#764402" d="M14 20h1M16 21h1M47 21h1M49 22h1" />
<path stroke="#814802" d="M16 20h1M14 21h1M49 21h1M14 22h1M16 22h1M47 22h1M14 23h1M16 23h1M47 23h1M49 23h1" />
<path stroke="#6e2f0c" d="M13 25h1M15 25h1M17 25h1M46 25h1M48 25h1M50 25h1M77 25h1M79 25h1M81 25h1M108 25h1M110 25h1M112 25h1M15 26h1M48 26h1M79 26h1M110 26h1" />
<path stroke="#7c3f1e" d="M14 25h1M16 25h1M47 25h1M49 25h1M78 25h1M80 25h1M109 25h1M111 25h1M13 26h2M16 26h2M46 26h2M49 26h2M77 26h2M80 26h2M108 26h2M111 26h2" />
<path stroke="#717171" d="M13 27h1M17 27h1M46 27h1M50 27h1M77 27h1M81 27h1M108 27h1M112 27h1" />
<path stroke="#181818" d="M14 27h1M16 27h1M47 27h1M49 27h1M78 27h1M80 27h1M109 27h1M111 27h1M14 28h1M47 28h1M78 28h1M109 28h1M11 29h2M17 29h1M44 29h2M50 29h1M75 29h2M81 29h1M106 29h2M112 29h1M14 30h1M47 30h1M78 30h1M109 30h1" />
<path stroke="#ababab" d="M13 28h1M17 28h1M46 28h1M50 28h1M77 28h1M81 28h1M108 28h1M112 28h1" />
<path stroke="#101010" d="M16 28h1M49 28h1M80 28h1M111 28h1M13 29h2M18 29h1M46 29h2M51 29h1M77 29h2M82 29h1M108 29h2M113 29h1M12 30h1M17 30h2M45 30h1M50 30h2M76 30h1M81 30h2M107 30h1M112 30h2" />
<path stroke="#0b0b0b" d="M16 29h1M49 29h1M80 29h1M111 29h1M11 30h1M13 30h1M16 30h1M44 30h1M46 30h1M49 30h1M75 30h1M77 30h1M80 30h1M106 30h1M108 30h1M111 30h1" />
</svg>