<svg xmlns="http://www.w3.org/2000/svg" viewBox="0 -0.5 64 32" shape-rendering="crispEdges">
<metadata>Made with Pixels to Svg https://codepen.io/shshaw/pen/XbxvNj</metadata>
<path stroke="#000000" d="M13 5h6M12 6h8M45 6h6M11 7h10M44 7h8M10 8h12M43 8h10M10 9h4M15 9h7M42 9h12M10 10h3M16 10h6M42 10h4M47 10h7M11 11h1M17 11h5M42 11h3M48 11h6M11 12h1M13 12h1M17 12h1M19 12h3M40 12h1M43 12h1M49 12h6M10 13h2M19 13h2M39 13h1M41 13h1M43 13h1M45 13h1M49 13h1M51 13h3M55 13h1M11 14h1M19 14h2M41 14h3M51 14h3M11 15h2M18 15h2M39 15h1M41 15h1M43 15h1M51 15h3M55 15h1M13 16h1M17 16h1M39 16h1M41 16h1M43 16h2M50 16h2M53 16h1M55 16h1M12 17h1M18 17h1M39 17h1M41 17h4M50 17h4M55 17h1M11 18h1M19 18h1M39 18h1M55 18h1M10 19h1M14 19h1M16 19h1M20 19h1M40 19h4M46 19h1M48 19h1M51 19h4M10 20h1M12 20h1M15 20h1M18 20h1M20 20h1M44 20h1M47 20h1M50 20h1M10 21h1M12 21h1M14 21h1M16 21h1M18 21h1M20 21h1M44 21h1M46 21h1M48 21h1M50 21h1M9 22h2M12 22h1M18 22h1M20 22h2M44 22h1M50 22h1M9 23h1M12 23h1M18 23h1M21 23h1M44 23h1M50 23h1M9 24h13M44 24h7M12 25h2M17 25h2M44 25h2M49 25h2M12 26h1M15 26h1M18 26h1M44 26h1M47 26h1M50 26h1M12 27h1M15 27h1M18 27h1M44 27h1M47 27h1M50 27h1M12 28h1M15 28h1M18 28h1M44 28h1M47 28h1M50 28h1M12 29h1M14 29h3M18 29h1M44 29h1M46 29h3M50 29h1M12 30h2M15 30h1M17 30h2M44 30h2M47 30h1M49 30h2" />
<path stroke="#f4c094" d="M14 9h1M13 10h3M46 10h1M12 11h1M14 11h3M45 11h3M10 12h1M12 12h1M14 12h3M18 12h1M44 12h1M46 12h3M13 13h1M17 13h1M40 13h1M42 13h1M44 13h1M46 13h3M50 13h1M54 13h1M14 14h1M16 14h1M39 14h2M45 14h1M49 14h1M54 14h2M46 15h1M48 15h1M15 17h1M47 17h1M10 23h2M19 23h2" />
<path stroke="#ce9a6e" d="M10 11h1M42 12h1M14 16h3" />
<path stroke="#131313" d="M13 11h1M45 12h1M11 19h1M13 19h1M18 19h1M45 19h1M50 19h1M11 21h1M13 21h1M19 21h1M45 21h1M14 25h3M46 25h3M13 26h1M16 26h1M45 26h1M48 26h1M13 27h1M16 27h1M45 27h1M48 27h1M13 28h1M16 28h1M45 28h1M48 28h1" />
<path stroke="#edac84" d="M12 13h1M18 13h1M44 14h1M50 14h1" />
<path stroke="#483627" d="M14 13h3M12 14h2M17 14h2M46 14h3M13 15h5M44 15h2M49 15h2M45 16h5" />
<path stroke="#de947b" d="M15 14h1M47 15h1" />
<path stroke="#1a1713" d="M40 15h1M54 15h1M40 16h1M54 16h1M13 17h1M17 17h1M40 17h1M45 17h1M49 17h1M54 17h1M12 18h2M17 18h2M40 18h6M49 18h6M12 19h1M17 19h1M19 19h1M44 19h1M49 19h1M11 20h1M13 20h1M17 20h1M19 20h1M45 20h1M49 20h1M17 21h1M49 21h1M11 22h1M13 22h1M17 22h1M19 22h1M45 22h1M49 22h1M13 23h1M17 23h1M45 23h1M49 23h1M14 26h1M17 26h1M46 26h1M49 26h1M14 27h1M17 27h1M46 27h1M49 27h1M14 28h1M17 28h1M46 28h1M49 28h1" />
<path stroke="#dcdcd5" d="M14 17h1M46 17h1" />
<path stroke="#f2f2e0" d="M16 17h1M48 17h1M15 18h1M47 18h1M15 19h1M47 19h1M14 20h1M16 20h1M46 20h1M48 20h1M15 21h1M47 21h1M14 22h1M16 22h1M46 22h1M48 22h1M15 23h2M47 23h2M11 29h1M13 29h1M17 29h1M19 29h1M43 29h1M45 29h1M49 29h1M51 29h1M14 30h1M16 30h1M46 30h1M48 30h1" />
<path stroke="#ffffeb" d="M14 18h1M16 18h1M46 18h1M48 18h1M15 22h1M47 22h1M14 23h1M46 23h1" />
<path stroke="#ffffff" d="M11 30h1M19 30h1M43 30h1M51 30h1" />
</svg>