<svg xmlns="http://www.w3.org/2000/svg" viewBox="0 -0.5 128 32" shape-rendering="crispEdges">
<metadata>Made with Pixels to Svg https://codepen.io/shshaw/pen/XbxvNj</metadata>
<path stroke="#000000" d="M15 3h2M79 3h2M14 4h1M17 4h1M48 4h2M78 4h1M81 4h1M110 4h2M12 5h4M18 5h1M47 5h1M50 5h1M76 5h4M82 5h1M109 5h1M112 5h1M11 6h1M19 6h1M45 6h4M51 6h1M75 6h1M83 6h1M107 6h4M113 6h1M10 7h1M20 7h1M44 7h1M52 7h1M74 7h1M84 7h1M106 7h1M114 7h1M10 8h1M20 8h1M43 8h1M53 8h1M74 8h1M84 8h1M105 8h1M115 8h1M9 9h1M21 9h1M43 9h1M53 9h1M73 9h1M85 9h1M105 9h1M115 9h1M8 10h1M21 10h1M42 10h1M54 10h1M72 10h1M85 10h1M104 10h1M116 10h1M9 11h1M21 11h1M41 11h1M54 11h1M73 11h1M85 11h1M103 11h1M116 11h1M9 12h1M21 12h1M42 12h1M54 12h1M73 12h1M85 12h1M104 12h1M116 12h1M10 13h2M19 13h2M42 13h1M54 13h1M74 13h2M83 13h2M104 13h1M116 13h1M11 14h1M19 14h1M43 14h2M52 14h2M75 14h1M83 14h1M105 14h2M114 14h2M12 15h1M18 15h1M44 15h1M52 15h1M76 15h1M82 15h1M106 15h1M114 15h1M13 16h1M17 16h1M45 16h1M51 16h1M77 16h1M81 16h1M107 16h1M113 16h1M12 17h1M18 17h2M44 17h2M51 17h2M76 17h1M82 17h2M106 17h2M113 17h2M11 18h1M19 18h1M43 18h1M53 18h1M75 18h1M83 18h1M105 18h1M115 18h1M10 19h1M20 19h1M42 19h1M54 19h1M74 19h1M84 19h1M104 19h1M116 19h1M10 20h1M20 20h1M40 20h2M44 20h1M52 20h1M55 20h2M74 20h1M84 20h1M102 20h2M106 20h1M114 20h1M117 20h2M10 21h1M20 21h1M40 21h1M43 21h2M52 21h2M56 21h1M74 21h1M84 21h1M102 21h1M105 21h2M114 21h2M118 21h1M9 22h2M20 22h2M40 22h5M52 22h5M73 22h2M84 22h2M102 22h5M114 22h5M9 23h1M21 23h1M73 23h1M85 23h1M9 24h13M73 24h13M12 25h1M18 25h1M45 25h7M76 25h1M82 25h1M107 25h7M12 26h1M15 26h1M18 26h1M45 26h1M48 26h1M51 26h1M76 26h1M79 26h1M82 26h1M107 26h1M110 26h1M113 26h1M12 27h1M15 27h1M18 27h1M45 27h1M48 27h1M51 27h1M76 27h1M79 27h1M82 27h1M107 27h1M110 27h1M113 27h1M12 28h1M15 28h1M18 28h1M45 28h1M48 28h1M51 28h1M76 28h1M79 28h1M82 28h1M107 28h1M110 28h1M113 28h1M11 29h9M44 29h9M75 29h9M106 29h9M11 30h9M44 30h9M75 30h9M106 30h9" />
<path stroke="#2a1c12" d="M15 4h2M79 4h2M17 5h1M48 5h2M81 5h1M110 5h2M50 6h1M112 6h1M12 7h1M76 7h1M13 8h1M45 8h1M77 8h1M107 8h1M46 9h1M108 9h1" />
<path stroke="#1c0f06" d="M16 5h1M80 5h1M16 6h2M49 6h1M80 6h2M111 6h1M17 7h1M49 7h2M81 7h1M111 7h2M50 8h1M112 8h1" />
<path stroke="#211309" d="M12 6h3M18 6h1M76 6h3M82 6h1M14 7h2M18 7h1M45 7h3M51 7h1M78 7h2M82 7h1M107 7h3M113 7h1M15 8h2M18 8h2M47 8h2M79 8h2M82 8h2M109 8h2M113 8h1M13 9h2M18 9h2M48 9h2M77 9h2M82 9h2M110 9h2M113 9h2M9 10h3M19 10h1M46 10h2M51 10h2M73 10h3M83 10h1M108 10h2M113 10h2M42 11h3M52 11h1M104 11h3M114 11h1" />
<path stroke="#301f13" d="M15 6h1M79 6h1M11 7h1M16 7h1M48 7h1M75 7h1M80 7h1M110 7h1M12 8h1M44 8h1M49 8h1M76 8h1M106 8h1M111 8h1M45 9h1M107 9h1" />
<path stroke="#1f1006" d="M13 7h1M77 7h1M11 8h1M14 8h1M46 8h1M75 8h1M78 8h1M108 8h1M10 9h3M44 9h1M47 9h1M74 9h3M106 9h1M109 9h1M43 10h3M105 10h3" />
<path stroke="#170c05" d="M19 7h1M83 7h1M52 8h1M114 8h1M20 9h1M84 9h1M20 10h1M53 10h1M84 10h1M115 10h1M53 11h1M115 11h1" />
<path stroke="#e9d2bb" d="M17 8h1M81 8h1M15 9h3M50 9h1M79 9h3M112 9h1M48 10h3M110 10h3M10 12h1M20 12h1M74 12h1M84 12h1M15 13h1M43 13h1M53 13h1M79 13h1M105 13h1M115 13h1M12 14h2M16 14h3M48 14h1M76 14h2M80 14h3M110 14h1M13 15h5M45 15h3M50 15h2M77 15h5M107 15h3M112 15h2M46 16h5M108 16h5M42 20h1M54 20h1M104 20h1M116 20h1M41 21h2M54 21h2M103 21h2M116 21h2M11 22h1M19 22h1M75 22h1M83 22h1M10 23h2M19 23h2M74 23h2M83 23h2" />
<path stroke="#1f1107" d="M51 8h1M51 9h2" />
<path stroke="#252525" d="M12 10h7M76 10h7M45 11h7M107 11h7M11 12h1M15 12h1M19 12h1M75 12h1M79 12h1M83 12h1M12 13h3M16 13h3M44 13h1M48 13h1M52 13h1M76 13h3M80 13h3M106 13h1M110 13h1M114 13h1M45 14h3M49 14h3M107 14h3M111 14h3M13 25h4M77 25h4M13 26h1M16 26h1M46 26h1M49 26h1M77 26h1M80 26h1M108 26h1M111 26h1M13 27h1M16 27h1M46 27h1M49 27h1M77 27h1M80 27h1M108 27h1M111 27h1M13 28h1M16 28h1M46 28h1M49 28h1M77 28h1M80 28h1M108 28h1M111 28h1" />
<path stroke="#1f1f1f" d="M10 11h2M15 11h1M19 11h2M74 11h2M79 11h1M83 11h2M43 12h2M48 12h1M52 12h2M105 12h2M110 12h1M114 12h2" />
<path stroke="#f1e2d3" d="M12 11h1M14 11h1M16 11h1M18 11h1M76 11h1M78 11h1M80 11h1M82 11h1M12 12h1M14 12h1M16 12h1M18 12h1M45 12h1M47 12h1M49 12h1M51 12h1M76 12h1M78 12h1M80 12h1M82 12h1M107 12h1M109 12h1M111 12h1M113 12h1M45 13h1M47 13h1M49 13h1M51 13h1M107 13h1M109 13h1M111 13h1M113 13h1" />
<path stroke="#9f7d76" d="M13 11h1M17 11h1M77 11h1M81 11h1M13 12h1M17 12h1M46 12h1M50 12h1M77 12h1M81 12h1M108 12h1M112 12h1M46 13h1M50 13h1M108 13h1M112 13h1" />
<path stroke="#ecb39a" d="M14 14h2M78 14h2M48 15h2M110 15h2" />
<path stroke="#bb2800" d="M14 16h3M78 16h3M15 17h1M47 17h3M79 17h1M109 17h3M48 18h1M110 18h1M44 19h1M52 19h1M106 19h1M114 19h1M12 20h1M18 20h1M45 20h1M51 20h1M76 20h1M82 20h1M107 20h1M113 20h1M12 21h1M18 21h1M45 21h1M51 21h1M76 21h1M82 21h1M107 21h1M113 21h1M12 22h1M18 22h1M45 22h1M51 22h1M76 22h1M82 22h1M107 22h1M113 22h1M12 23h1M18 23h1M45 23h1M51 23h1M76 23h1M82 23h1M107 23h1M113 23h1M45 24h1M51 24h1M107 24h1M113 24h1" />
<path stroke="#ee3300" d="M13 17h2M16 17h2M46 17h1M50 17h1M77 17h2M80 17h2M108 17h1M112 17h1M47 18h1M49 18h1M109 18h1M111 18h1M11 19h9M43 19h1M45 19h2M50 19h2M53 19h1M75 19h9M105 19h1M107 19h2M112 19h2M115 19h1M11 20h1M13 20h5M19 20h1M46 20h5M75 20h1M77 20h5M83 20h1M108 20h5M11 21h1M16 21h2M19 21h1M46 21h5M75 21h1M80 21h2M83 21h1M108 21h5M13 22h2M49 22h2M77 22h2M111 22h2M13 23h5M46 23h2M77 23h5M108 23h2M46 24h5M108 24h5" />
<path stroke="#f34e21" d="M12 18h7M44 18h3M50 18h3M76 18h7M106 18h3M112 18h3M47 19h3M109 19h3M13 21h3M77 21h3M15 22h3M46 22h3M79 22h3M108 22h3M48 23h3M110 23h3" />
<path stroke="#c7ae94" d="M43 20h1M53 20h1M105 20h1M115 20h1" />
<path stroke="#373737" d="M17 25h1M81 25h1M14 26h1M17 26h1M47 26h1M50 26h1M78 26h1M81 26h1M109 26h1M112 26h1M14 27h1M17 27h1M47 27h1M50 27h1M78 27h1M81 27h1M109 27h1M112 27h1M14 28h1M17 28h1M47 28h1M50 28h1M78 28h1M81 28h1M109 28h1M112 28h1" />
</svg>