<svg xmlns="http://www.w3.org/2000/svg" viewBox="0 -0.5 128 32" shape-rendering="crispEdges">
<metadata>Made with Pixels to Svg https://codepen.io/shshaw/pen/XbxvNj</metadata>
<path stroke="#000000" d="M12 5h7M76 5h7M11 6h1M19 6h1M45 6h7M75 6h1M83 6h1M107 6h7M10 7h1M20 7h1M44 7h1M52 7h1M74 7h1M84 7h1M106 7h1M114 7h1M10 8h1M20 8h1M43 8h1M53 8h1M74 8h1M84 8h1M105 8h1M115 8h1M9 9h1M43 9h1M53 9h1M73 9h1M105 9h1M115 9h1M9 10h1M42 10h1M73 10h1M104 10h1M10 11h1M20 11h1M42 11h1M74 11h1M84 11h1M104 11h1M10 12h1M20 12h1M43 12h1M53 12h1M74 12h1M84 12h1M105 12h1M115 12h1M11 13h1M19 13h1M43 13h1M53 13h1M75 13h1M83 13h1M105 13h1M115 13h1M11 14h1M19 14h1M44 14h1M52 14h1M75 14h1M83 14h1M106 14h1M114 14h1M12 15h1M18 15h1M40 15h2M44 15h1M52 15h1M76 15h1M82 15h1M106 15h1M114 15h1M117 15h2M13 16h1M17 16h1M39 16h1M41 16h1M45 16h1M51 16h1M77 16h1M81 16h1M107 16h1M113 16h1M117 16h1M119 16h1M12 17h1M18 17h1M38 17h1M41 17h6M50 17h3M76 17h1M82 17h1M106 17h3M112 17h6M120 17h1M11 18h1M19 18h1M38 18h1M53 18h1M75 18h1M83 18h1M105 18h1M120 18h1M10 19h1M20 19h1M39 19h6M54 19h1M74 19h1M84 19h1M104 19h1M114 19h6M10 20h1M20 20h1M52 20h1M55 20h2M74 20h1M84 20h1M102 20h2M106 20h1M10 21h1M20 21h1M52 21h2M56 21h1M74 21h1M84 21h1M102 21h1M105 21h2M9 22h2M20 22h2M52 22h5M73 22h2M84 22h2M102 22h5M9 23h1M21 23h1M73 23h1M85 23h1M9 24h3M19 24h3M73 24h3M83 24h3" />
<path stroke="#1e0701" d="M12 6h1M76 6h1M11 7h3M45 7h1M75 7h3M107 7h1M11 8h4M44 8h3M75 8h4M106 8h3M10 9h4M44 9h4M74 9h4M106 9h4M10 10h1M43 10h4M74 10h1M105 10h4M43 11h1M105 11h1" />
<path stroke="#32190a" d="M13 6h6M77 6h6M14 7h5M46 7h6M78 7h5M108 7h6M15 8h2M18 8h2M47 8h5M79 8h2M82 8h2M109 8h5M18 9h2M48 9h2M51 9h2M82 9h2M110 9h2M113 9h2M19 10h1M51 10h2M83 10h1M113 10h2M52 11h1M114 11h1" />
<path stroke="#130400" d="M19 7h1M83 7h1M52 8h1M114 8h1M20 9h1M84 9h1M20 10h1M53 10h1M84 10h1M115 10h1M53 11h1M115 11h1" />
<path stroke="#ebc4a7" d="M17 8h1M81 8h1M14 9h4M50 9h1M78 9h4M112 9h1M12 10h7M47 10h4M76 10h7M109 10h4M11 11h2M14 11h3M18 11h2M45 11h7M75 11h2M78 11h3M82 11h2M107 11h7M11 12h2M18 12h2M44 12h2M47 12h3M51 12h2M75 12h2M82 12h2M106 12h2M109 12h3M113 12h2M12 13h7M44 13h2M51 13h2M76 13h7M106 13h2M113 13h2M12 14h2M15 14h4M45 14h7M76 14h2M79 14h4M107 14h7M13 15h5M45 15h2M48 15h4M77 15h5M107 15h2M110 15h4M40 16h1M46 16h5M108 16h5M118 16h1M39 17h2M118 17h2M39 18h2M118 18h2M54 21h2M103 21h2M10 23h2M19 23h2M74 23h2M83 23h2" />
<path stroke="#200b02" d="M11 10h1M75 10h1M44 11h1M106 11h1" />
<path stroke="#5f2e10" d="M13 11h1M17 11h1M77 11h1M81 11h1M46 12h1M50 12h1M108 12h1M112 12h1" />
<path stroke="#713612" d="M13 12h1M17 12h1M77 12h1M81 12h1M46 13h1M50 13h1M108 13h1M112 13h1" />
<path stroke="#e4aa8e" d="M14 12h3M78 12h3M47 13h3M109 13h3M14 14h1M78 14h1M47 15h1M109 15h1M14 16h3M78 16h3M47 17h3M109 17h3" />
<path stroke="#264972" d="M13 17h5M77 17h5M12 18h7M41 18h12M76 18h7M106 18h12M11 19h3M17 19h3M45 19h9M75 19h3M81 19h3M105 19h9M11 20h1M13 20h5M19 20h1M45 20h2M50 20h2M53 20h2M75 20h1M77 20h5M83 20h1M104 20h2M107 20h2M112 20h2M11 21h1M13 21h5M19 21h1M46 21h5M75 21h1M77 21h5M83 21h1M108 21h5M11 22h1M13 22h5M19 22h1M46 22h5M75 22h1M77 22h5M83 22h1M108 22h5M13 23h5M46 23h5M77 23h5M108 23h5M46 24h5M108 24h5" />
<path stroke="#ffffff" d="M14 19h3M78 19h3M47 20h3M109 20h3M11 30h4M16 30h4M44 30h4M49 30h4M75 30h4M80 30h4M106 30h4M111 30h4" />
<path stroke="#153254" d="M12 20h1M18 20h1M76 20h1M82 20h1M12 21h1M18 21h1M45 21h1M51 21h1M76 21h1M82 21h1M107 21h1M113 21h1M12 22h1M18 22h1M45 22h1M51 22h1M76 22h1M82 22h1M107 22h1M113 22h1M12 23h1M18 23h1M45 23h1M51 23h1M76 23h1M82 23h1M107 23h1M113 23h1M12 24h7M45 24h1M51 24h1M76 24h7M107 24h1M113 24h1M45 25h7M107 25h7" />
<path stroke="#c09e67" d="M12 25h6M76 25h6M13 26h1M16 26h1M46 26h1M49 26h1M77 26h1M80 26h1M109 26h1M112 26h1M13 27h1M16 27h1M46 27h1M49 27h1M77 27h1M80 27h1M109 27h1M112 27h1M13 28h1M16 28h1M46 28h1M49 28h1M77 28h1M80 28h1M109 28h1M112 28h1" />
<path stroke="#d6b785" d="M18 25h1M82 25h1M14 26h1M17 26h1M47 26h1M50 26h1M78 26h1M81 26h1M108 26h1M111 26h1M14 27h1M17 27h1M47 27h1M50 27h1M78 27h1M81 27h1M108 27h1M111 27h1M14 28h1M17 28h1M47 28h1M50 28h1M78 28h1M81 28h1M108 28h1M111 28h1" />
<path stroke="#937440" d="M12 26h1M15 26h1M18 26h1M45 26h1M48 26h1M51 26h1M76 26h1M79 26h1M82 26h1M107 26h1M110 26h1M113 26h1M12 27h1M15 27h1M18 27h1M45 27h1M48 27h1M51 27h1M76 27h1M79 27h1M82 27h1M107 27h1M110 27h1M113 27h1M12 28h1M15 28h1M18 28h1M45 28h1M48 28h1M51 28h1M76 28h1M79 28h1M82 28h1M107 28h1M110 28h1M113 28h1" />
<path stroke="#4c4c4c" d="M11 29h4M16 29h4M44 29h4M49 29h4M75 29h4M80 29h4M106 29h4M111 29h4" />
<path stroke="#292929" d="M15 29h1M48 29h1M79 29h1M110 29h1" />
<path stroke="#bababa" d="M15 30h1M48 30h1M79 30h1M110 30h1" />
</svg>