<svg xmlns="http://www.w3.org/2000/svg" viewBox="0 -0.5 128 32" shape-rendering="crispEdges">
<metadata>Made with Pixels to Svg https://codepen.io/shshaw/pen/XbxvNj</metadata>
<path stroke="#000000" d="M11 6h9M75 6h9M10 7h11M44 7h9M74 7h11M106 7h9M10 8h3M16 8h2M20 8h1M43 8h11M74 8h3M80 8h2M84 8h1M105 8h11M9 9h6M16 9h6M43 9h3M49 9h2M53 9h1M73 9h6M80 9h6M105 9h3M111 9h2M115 9h1M9 10h1M21 10h1M42 10h6M49 10h6M73 10h1M85 10h1M104 10h6M111 10h6M9 11h1M11 11h1M13 11h1M17 11h1M19 11h1M21 11h1M42 11h1M54 11h1M73 11h1M75 11h1M77 11h1M81 11h1M83 11h1M85 11h1M104 11h1M116 11h1M9 12h1M19 12h1M21 12h1M42 12h1M44 12h1M46 12h1M50 12h1M52 12h1M54 12h1M73 12h1M83 12h1M85 12h1M104 12h1M106 12h1M108 12h1M112 12h1M114 12h1M116 12h1M9 13h3M19 13h3M42 13h1M52 13h1M54 13h1M73 13h3M83 13h3M104 13h1M114 13h1M116 13h1M11 14h1M19 14h1M42 14h3M52 14h3M75 14h1M83 14h1M104 14h3M114 14h3M44 15h1M52 15h1M106 15h1M114 15h1M12 17h1M18 17h1M76 17h1M82 17h1M11 18h1M19 18h1M45 18h1M51 18h1M75 18h1M83 18h1M107 18h1M113 18h1M10 19h1M20 19h1M44 19h1M52 19h2M74 19h1M84 19h1M106 19h1M114 19h2M10 20h1M12 20h1M18 20h1M20 20h1M42 20h2M53 20h2M74 20h1M76 20h1M82 20h1M84 20h1M104 20h2M115 20h2M10 21h1M12 21h1M18 21h1M20 21h1M40 21h2M45 21h1M51 21h1M55 21h2M74 21h1M76 21h1M82 21h1M84 21h1M102 21h2M107 21h1M113 21h1M117 21h2M9 22h2M12 22h1M18 22h1M20 22h2M40 22h1M43 22h3M51 22h3M56 22h1M73 22h2M76 22h1M82 22h1M84 22h2M102 22h1M105 22h3M113 22h3M118 22h1M9 23h1M12 23h7M21 23h1M40 23h4M45 23h1M51 23h1M53 23h4M73 23h1M76 23h7M85 23h1M102 23h4M107 23h1M113 23h1M115 23h4M9 24h4M18 24h4M45 24h7M73 24h4M82 24h4M107 24h7M12 25h1M18 25h1M45 25h1M51 25h1M76 25h1M82 25h1M107 25h1M113 25h1M12 26h1M15 26h1M18 26h1M45 26h1M48 26h1M51 26h1M76 26h1M79 26h1M82 26h1M107 26h1M110 26h1M113 26h1M12 27h1M15 27h1M18 27h1M45 27h1M48 27h1M51 27h1M76 27h1M79 27h1M82 27h1M107 27h1M110 27h1M113 27h1M11 28h2M15 28h1M18 28h2M44 28h2M48 28h1M51 28h2M75 28h2M79 28h1M82 28h2M106 28h2M110 28h1M113 28h2M10 29h1M13 29h5M20 29h1M43 29h1M46 29h5M53 29h1M74 29h1M77 29h5M84 29h1M105 29h1M108 29h5M115 29h1M10 30h1M13 30h1M15 30h1M17 30h1M20 30h1M43 30h1M46 30h1M48 30h1M50 30h1M53 30h1M74 30h1M77 30h1M79 30h1M81 30h1M84 30h1M105 30h1M108 30h1M110 30h1M112 30h1M115 30h1" />
<path stroke="#1a1713" d="M13 8h2M18 8h2M21 8h1M77 8h2M82 8h2M85 8h1M46 9h2M51 9h2M54 9h1M108 9h2M113 9h2M116 9h1M10 10h2M19 10h2M74 10h2M83 10h2M43 11h2M52 11h2M105 11h2M114 11h2M11 12h1M13 12h1M17 12h1M75 12h1M77 12h1M81 12h1M44 13h1M46 13h1M50 13h1M106 13h1M108 13h1M112 13h1M10 14h1M20 14h1M74 14h1M84 14h1M10 15h3M18 15h3M43 15h1M53 15h1M74 15h3M82 15h3M105 15h1M115 15h1M11 16h3M17 16h3M43 16h3M51 16h3M75 16h3M81 16h3M105 16h3M113 16h3M44 17h3M50 17h3M106 17h3M112 17h3" />
<path stroke="#f4c094" d="M15 8h1M79 8h1M15 9h1M48 9h1M79 9h1M110 9h1M12 10h7M48 10h1M76 10h7M110 10h1M12 11h1M14 11h3M18 11h1M45 11h7M76 11h1M78 11h3M82 11h1M107 11h7M10 12h1M12 12h1M14 12h3M18 12h1M20 12h1M45 12h1M47 12h3M51 12h1M74 12h1M76 12h1M78 12h3M82 12h1M84 12h1M107 12h1M109 12h3M113 12h1M13 13h5M43 13h1M45 13h1M47 13h3M51 13h1M53 13h1M77 13h5M105 13h1M107 13h1M109 13h3M113 13h1M115 13h1M12 14h2M16 14h3M46 14h5M76 14h2M80 14h3M108 14h5M13 15h5M45 15h2M49 15h3M77 15h5M107 15h2M111 15h3M46 16h5M108 16h5M42 21h1M54 21h1M104 21h1M116 21h1M11 22h1M19 22h1M41 22h2M54 22h2M75 22h1M83 22h1M103 22h2M116 22h2M10 23h2M19 23h2M74 23h2M83 23h2M13 27h2M16 27h2M46 27h2M49 27h2M77 27h2M80 27h2M108 27h2M111 27h2" />
<path stroke="#ce9a6e" d="M10 11h1M20 11h1M74 11h1M84 11h1M43 12h1M53 12h1M105 12h1M115 12h1M14 16h3M78 16h3M47 17h3M109 17h3" />
<path stroke="#ff896e" d="M12 13h1M18 13h1M76 13h1M82 13h1M45 14h1M51 14h1M107 14h1M113 14h1" />
<path stroke="#de947b" d="M14 14h2M78 14h2M47 15h2M109 15h2" />
<path stroke="#415baf" d="M13 17h1M17 17h1M77 17h1M81 17h1M13 18h1M17 18h1M46 18h1M50 18h1M77 18h1M81 18h1M108 18h1M112 18h1M14 19h1M16 19h1M46 19h1M50 19h1M78 19h1M80 19h1M108 19h1M112 19h1M13 20h3M17 20h1M47 20h1M49 20h1M77 20h3M81 20h1M109 20h1M111 20h1M14 21h4M46 21h3M50 21h1M78 21h4M108 21h3M112 21h1M13 22h1M15 22h2M47 22h4M77 22h1M79 22h2M109 22h4M46 23h1M48 23h2M108 23h1M110 23h2M14 25h2M47 25h2M78 25h2M109 25h2M14 26h1M16 26h1M47 26h1M49 26h1M78 26h1M80 26h1M109 26h1M111 26h1" />
<path stroke="#ffffeb" d="M14 17h1M78 17h1M47 18h1M109 18h1M13 28h2M16 28h2M46 28h2M49 28h2M77 28h2M80 28h2M108 28h2M111 28h2" />
<path stroke="#f2f2e0" d="M15 17h2M79 17h2M48 18h2M110 18h2M19 19h1M83 19h1M52 20h1M114 20h1M11 21h1M75 21h1" />
<path stroke="#ffcc00" d="M12 18h1M14 18h1M18 18h1M76 18h1M78 18h1M82 18h1M45 19h1M47 19h1M51 19h1M107 19h1M109 19h1M113 19h1" />
<path stroke="#ffaf12" d="M15 18h2M79 18h2M48 19h2M110 19h2M11 20h1M19 20h1M75 20h1M83 20h1M43 21h2M52 21h2M105 21h2M114 21h2" />
<path stroke="#ffffff" d="M11 19h2M18 19h1M75 19h2M82 19h1M44 20h2M51 20h1M106 20h2M113 20h1M19 21h1M83 21h1M12 30h1M18 30h1M45 30h1M51 30h1M76 30h1M82 30h1M107 30h1M113 30h1" />
<path stroke="#4a387b" d="M13 19h1M17 19h1M77 19h1M81 19h1M46 20h1M50 20h1M108 20h1M112 20h1M13 24h5M77 24h5M13 25h1M17 25h1M46 25h1M50 25h1M77 25h1M81 25h1M108 25h1M112 25h1" />
<path stroke="#2a76ae" d="M15 19h1M79 19h1M16 20h1M48 20h1M80 20h1M110 20h1M13 21h1M49 21h1M77 21h1M111 21h1M14 22h1M17 22h1M46 22h1M78 22h1M81 22h1M108 22h1M47 23h1M50 23h1M109 23h1M112 23h1M16 25h1M49 25h1M80 25h1M111 25h1M13 26h1M17 26h1M46 26h1M50 26h1M77 26h1M81 26h1M108 26h1M112 26h1" />
<path stroke="#c3c3d3" d="M11 29h2M18 29h2M44 29h2M51 29h2M75 29h2M82 29h2M106 29h2M113 29h2M11 30h1M14 30h1M16 30h1M19 30h1M44 30h1M47 30h1M49 30h1M52 30h1M75 30h1M78 30h1M80 30h1M83 30h1M106 30h1M109 30h1M111 30h1M114 30h1" />
</svg>