<svg xmlns="http://www.w3.org/2000/svg" viewBox="0 -0.5 64 32" shape-rendering="crispEdges">
<metadata>Made with Pixels to Svg https://codepen.io/shshaw/pen/XbxvNj</metadata>
<path stroke="#281400" d="M12 4h7M12 5h1M14 5h1M16 5h1M18 5h2M44 5h7M11 6h1M13 6h2M17 6h1M20 6h1M44 6h1M46 6h1M48 6h1M50 6h2M10 7h1M15 7h2M18 7h1M20 7h1M43 7h1M45 7h2M49 7h1M52 7h1M12 8h1M15 8h1M17 8h1M42 8h1M47 8h2M50 8h1M52 8h1M16 9h1M44 9h1M47 9h1M49 9h1M48 10h1M19 12h1M51 13h1M11 14h1M19 14h1M43 15h1M51 15h1" />
<path stroke="#1f0f00" d="M11 5h1M17 5h1M10 6h1M15 6h1M18 6h1M43 6h1M49 6h1M11 7h2M14 7h1M17 7h1M42 7h1M47 7h1M50 7h1M13 8h1M18 8h1M43 8h2M46 8h1M49 8h1M12 9h1M18 9h1M45 9h1M50 9h1M44 10h1M50 10h1M11 13h1M12 14h1M43 14h1M44 15h1" />
<path stroke="#311800" d="M13 5h1M15 5h1M12 6h1M16 6h1M19 6h1M45 6h1M47 6h1M13 7h1M19 7h1M44 7h1M48 7h1M51 7h1M45 8h1M51 8h1M11 12h1M19 13h1M43 13h1M18 14h1M51 14h1M50 15h1" />
<path stroke="#493522" d="M10 8h2M19 8h2M10 9h2M19 9h2M42 9h2M51 9h2M10 10h1M20 10h1M42 10h2M51 10h2M42 11h1M52 11h1" />
<path stroke="#c59666" d="M14 8h1M16 8h1M13 9h3M17 9h1M46 9h1M48 9h1M12 10h1M14 10h3M18 10h1M45 10h3M49 10h1M12 11h1M18 11h1M44 11h1M46 11h3M50 11h1M13 12h5M44 12h1M50 12h1M12 13h2M16 13h3M45 13h5M13 14h5M44 14h2M48 14h3M45 15h5M15 16h1M47 17h1M41 20h1M53 20h1M40 21h2M53 21h2M10 22h2M21 22h1M21 23h1" />
<path stroke="#ae7646" d="M11 10h1M19 10h1M11 11h1M19 11h1M43 11h1M51 11h1M43 12h1M51 12h1M14 15h3M46 16h3" />
<path stroke="#3e1f00" d="M13 10h1M17 10h1M45 11h1M49 11h1" />
<path stroke="#633100" d="M13 11h1M17 11h1M45 12h1M49 12h1" />
<path stroke="#b86c3f" d="M14 11h3M12 12h1M18 12h1M46 12h3M44 13h1M50 13h1" />
<path stroke="#b15c2e" d="M14 13h2M46 14h2" />
<path stroke="#000000" d="M12 15h2M17 15h1M12 16h2M18 16h1M44 16h2M49 16h2M11 17h1M13 17h1M19 17h1M43 17h1M45 17h1M51 17h1M10 18h1M14 18h1M20 18h1M42 18h1M45 18h1M52 18h1M10 19h1M14 19h1M21 19h1M41 19h1M46 19h1M53 19h1M10 20h1M15 20h1M21 20h1M40 20h1M46 20h1M54 20h1M9 21h2M16 21h1M22 21h1M39 21h1M42 21h3M47 21h1M50 21h3M55 21h1M9 22h1M17 22h4M22 22h1M39 22h3M44 22h1M48 22h1M50 22h1M53 22h3M9 23h4M18 23h2M22 23h1M49 23h4M12 24h1M18 24h1M21 24h1M44 24h1M50 24h2M12 25h1M15 25h1M18 25h1M44 25h1M50 25h1M12 26h1M15 26h1M18 26h1M44 26h1M47 26h1M50 26h1M12 27h1M15 27h1M18 27h1M44 27h1M47 27h1M50 27h1M12 28h1M15 28h1M18 28h1M44 28h1M47 28h1M50 28h1M15 29h1M47 29h1M15 30h1M47 30h1" />
<path stroke="#9e9e9e" d="M14 16h1M16 16h1M15 17h1M46 17h1M48 17h1M47 18h1" />
<path stroke="#282828" d="M17 16h1M12 17h1M18 17h1M44 17h1M49 17h2M12 18h1M18 18h1M43 18h2M50 18h2M11 19h1M13 19h1M17 19h1M19 19h2M44 19h1M50 19h1M42 20h2M45 20h1M49 20h1M51 20h2M13 22h1M45 23h1" />
<path stroke="#dbdbdb" d="M14 17h1M16 17h1M15 18h1M46 18h1M48 18h1M15 19h2M47 19h1M14 20h1M47 20h2M14 21h1M46 21h1M15 22h1M46 22h1M47 23h1" />
<path stroke="#373737" d="M17 17h1M49 18h1M11 21h1M13 21h1M17 21h1M20 21h2M45 22h1M49 22h1" />
<path stroke="#5b5b5b" d="M11 18h1M13 18h1M17 18h1M19 18h1M42 19h2M45 19h1M49 19h1M51 19h2M11 20h1M13 20h1M17 20h1M20 20h1M45 21h1M49 21h1" />
<path stroke="#eaeaea" d="M16 18h1M48 19h1M16 20h1M15 21h1M48 21h1M14 22h1M47 22h1M46 23h1" />
<path stroke="#111111" d="M12 19h1M18 19h1M12 20h1M18 20h2M44 20h1M50 20h1M12 21h1M18 21h2M12 22h1M44 23h1" />
<path stroke="#c9c9c9" d="M16 22h1M48 23h1" />
<path stroke="#a1753d" d="M13 23h5M45 24h5" />
<path stroke="#4f0500" d="M20 23h1M20 24h1M52 24h1M52 25h1" />
<path stroke="#b48d52" d="M13 24h1M17 24h1M45 25h1M49 25h1" />
<path stroke="#d3b891" d="M14 24h3M13 25h2M16 25h2M46 25h3M13 26h2M16 26h2M45 26h2M48 26h2M13 27h2M16 27h2M45 27h2M48 27h2M13 28h2M16 28h2M45 28h2M48 28h2" />
<path stroke="#1a1a1a" d="M19 24h1M19 25h2M51 25h1M19 26h2M51 26h2M51 27h2" />
<path stroke="#e3e3e3" d="M11 29h1M19 29h1M43 29h1M51 29h1M11 30h1M14 30h1M16 30h1M19 30h1M43 30h1M46 30h1M48 30h1M51 30h1" />
<path stroke="#242424" d="M12 29h1M18 29h1M44 29h1M50 29h1M12 30h2M44 30h2" />
<path stroke="#1b1b1b" d="M13 29h2M16 29h2M45 29h2M48 29h2M17 30h2M49 30h2" />
</svg>