<svg xmlns="http://www.w3.org/2000/svg" viewBox="0 -0.5 64 32" shape-rendering="crispEdges">
<metadata>Made with Pixels to Svg https://codepen.io/shshaw/pen/XbxvNj</metadata>
<path stroke="#200c05" d="M15 5h9M14 6h11M47 6h9M14 7h11M46 7h11M13 8h13M46 8h11M13 9h8M22 9h4M45 9h13M13 10h3M17 10h3M23 10h3M45 10h8M54 10h4M13 11h2M24 11h2M45 11h3M49 11h3M55 11h3M13 12h2M24 12h2M45 12h2M56 12h2M13 13h1M25 13h1M45 13h2M56 13h2M14 14h1M24 14h2M45 14h1M57 14h1M14 15h2M23 15h2M46 15h1M56 15h2M46 16h2M55 16h2" />
<path stroke="#c0683b" d="M21 9h1M20 10h2M53 10h1M16 11h1M18 11h3M22 11h1M52 11h2M16 12h1M18 12h3M22 12h1M48 12h1M50 12h3M54 12h1M17 13h5M48 13h1M50 13h3M54 13h1M16 14h2M20 14h3M49 14h5M17 15h5M48 15h2M52 15h3M49 16h5M18 17h3M19 18h1M50 18h3M51 19h1M44 21h2M57 21h2M15 22h1M23 22h1M14 23h2M23 23h2M17 28h2M20 28h2M49 28h2M52 28h2" />
<path stroke="#000000" d="M16 10h1M22 10h1M48 11h1M54 11h1M14 13h1M24 13h1M15 14h1M23 14h1M46 14h1M56 14h1M16 15h1M22 15h1M47 15h1M55 15h1M17 16h1M21 16h1M48 16h1M54 16h1M16 17h1M22 17h1M47 17h3M53 17h3M15 18h1M23 18h1M46 18h1M56 18h1M14 19h1M24 19h1M45 19h1M57 19h1M14 20h1M24 20h1M44 20h1M47 20h1M55 20h1M58 20h1M14 21h1M24 21h1M43 21h1M46 21h2M55 21h2M59 21h1M13 22h2M24 22h2M43 22h5M55 22h5M13 23h1M25 23h1M13 24h3M23 24h3M16 26h1M22 26h1M16 27h1M22 27h1M48 27h1M54 27h1M16 28h1M22 28h1M48 28h1M54 28h1" />
<path stroke="#973e0b" d="M15 11h1M23 11h1M15 12h1M23 12h1M47 12h1M55 12h1M47 13h1M55 13h1M18 16h3M50 17h3M19 28h1M51 28h1" />
<path stroke="#411402" d="M17 11h1M21 11h1M49 12h1M53 12h1" />
<path stroke="#672a0f" d="M17 12h1M21 12h1M49 13h1M53 13h1" />
<path stroke="#b0b0b0" d="M15 13h1M23 13h1M47 14h1M55 14h1" />
<path stroke="#aa2c1d" d="M16 13h1M22 13h1M18 14h2M48 14h1M54 14h1M50 15h2" />
<path stroke="#2c2c2c" d="M17 17h1M21 17h1M17 18h1M21 18h1M47 18h1M49 18h1M53 18h1M55 18h1M15 19h1M17 19h1M21 19h1M23 19h1M46 19h2M49 19h1M53 19h1M55 19h2M15 20h1M17 20h1M21 20h1M23 20h1M45 20h2M49 20h1M53 20h1M56 20h2M15 21h1M17 21h1M21 21h1M23 21h1M49 21h1M53 21h1M17 22h1M21 22h1M49 22h1M53 22h1M17 23h1M21 23h1M49 23h1M53 23h1M17 24h1M21 24h1M49 24h1M53 24h1M17 25h1M21 25h1M49 25h1M53 25h1M49 26h1M53 26h1" />
<path stroke="#202020" d="M16 18h1M22 18h1M48 18h1M54 18h1M16 19h1M22 19h1M48 19h1M54 19h1M16 20h1M22 20h1M48 20h1M54 20h1M16 21h1M22 21h1M48 21h1M54 21h1M16 22h1M22 22h1M48 22h1M54 22h1M16 23h1M22 23h1M48 23h1M54 23h1M16 24h1M22 24h1M48 24h1M54 24h1M16 25h1M22 25h1M48 25h1M54 25h1M48 26h1M54 26h1" />
<path stroke="#0b0b0b" d="M18 18h1M20 18h1M19 19h1M50 19h1M52 19h1M51 20h1M18 22h3M50 23h3" />
<path stroke="#010101" d="M8 19h1M10 19h1M39 19h1M41 19h1M5 20h1M9 20h1M36 20h1M40 20h1M4 21h1M7 21h4M35 21h1M38 21h4M4 22h1M6 22h4M35 22h1M38 22h3M4 23h1M6 23h3M36 23h1M38 23h3M5 24h4M37 24h4" />
<path stroke="#1c1c1c" d="M18 19h1M20 19h1M18 20h3M50 20h1M52 20h1M18 21h3M50 21h3M50 22h3" />
<path stroke="#517f31" d="M8 20h1M10 20h1M39 20h1M41 20h1" />
<path stroke="#638f9b" d="M18 23h1M20 23h1M17 26h1M21 26h1" />
<path stroke="#42626a" d="M19 23h1M19 24h1M51 24h1M19 25h1M51 25h1M19 26h1M51 26h1M19 27h1M51 27h1" />
<path stroke="#6c95a1" d="M18 24h1M20 24h1M50 24h1M52 24h1M17 27h1M21 27h1M49 27h1M53 27h1" />
<path stroke="#749ba6" d="M18 25h1M20 25h1M50 25h1M52 25h1M18 27h1M20 27h1M50 27h1M52 27h1" />
<path stroke="#7ba0aa" d="M18 26h1M20 26h1M50 26h1M52 26h1" />
<path stroke="#290500" d="M15 29h1M17 29h5M23 29h1M47 29h1M49 29h5M55 29h1M15 30h9M47 30h9" />
<path stroke="#d9cbb4" d="M16 29h1M22 29h1M48 29h1M54 29h1" />
</svg>