<svg xmlns="http://www.w3.org/2000/svg" viewBox="0 -0.5 64 32" shape-rendering="crispEdges">
<metadata>Made with Pixels to Svg https://codepen.io/shshaw/pen/XbxvNj</metadata>
<path stroke="#000000" d="M12 5h7M11 6h1M19 6h1M44 6h7M10 7h1M20 7h1M43 7h1M51 7h1M10 8h1M20 8h1M42 8h1M52 8h1M10 9h1M20 9h1M42 9h1M52 9h1M10 10h1M20 10h1M42 10h1M52 10h1M10 11h1M20 11h1M42 11h1M52 11h1M10 12h2M15 12h1M19 12h2M42 12h1M52 12h1M10 13h2M19 13h2M42 13h2M47 13h1M51 13h2M11 14h1M19 14h1M42 14h2M51 14h2M12 15h1M18 15h1M43 15h1M51 15h1M13 16h1M17 16h1M44 16h1M50 16h1M12 17h1M18 17h1M43 17h3M49 17h3M11 18h1M19 18h1M42 18h1M52 18h1M10 19h1M20 19h1M41 19h1M53 19h1M10 20h1M39 20h2M43 20h1M51 20h1M54 20h2M10 21h1M20 21h1M39 21h1M42 21h2M51 21h2M55 21h1M9 22h2M20 22h2M39 22h5M51 22h5M9 23h1M21 23h1M43 23h1M51 23h1M9 24h13M43 24h1M51 24h1M11 25h1M19 25h1M43 25h9M11 26h1M15 26h1M19 26h1M43 26h1M51 26h1M11 27h1M15 27h1M19 27h1M43 27h1M47 27h1M51 27h1M11 28h1M15 28h1M19 28h1M43 28h1M47 28h1M51 28h1M10 29h11M42 29h11M10 30h11M42 30h11" />
<path stroke="#342320" d="M12 6h7M11 7h9M44 7h7M11 8h2M18 8h2M43 8h9M11 9h1M19 9h1M43 9h2M50 9h2M11 10h1M19 10h1M43 10h1M51 10h1M43 11h1M51 11h1M12 13h1M14 13h3M18 13h1M12 14h2M17 14h2M44 14h1M46 14h3M50 14h1M13 15h5M44 15h2M49 15h2M14 16h3M45 16h5M46 17h3" />
<path stroke="#cd9c80" d="M13 8h5M12 9h7M45 9h5M12 10h7M44 10h7M11 11h2M18 11h2M44 11h7M43 12h2M50 12h2M13 13h1M17 13h1M45 14h1M49 14h1M41 20h1M53 20h1M11 21h1M19 21h1M40 21h1M54 21h1M11 22h1M19 22h1M10 23h2M19 23h2" />
<path stroke="#3f2924" d="M13 11h1M17 11h1M45 12h1M49 12h1" />
<path stroke="#ba7d63" d="M14 11h3M46 12h3M15 17h1M47 18h1M42 20h1M52 20h1M41 21h1M53 21h1" />
<path stroke="#e6cec1" d="M12 12h1M14 12h1M16 12h1M18 12h1M44 13h1M46 13h1M48 13h1M50 13h1" />
<path stroke="#ad9d97" d="M13 12h1M17 12h1M45 13h1M49 13h1" />
<path stroke="#f8f8f8" d="M14 14h3M46 15h3" />
<path stroke="#282828" d="M13 17h1M12 18h3M16 18h1M43 18h3M12 19h1M14 19h1M16 19h1M43 19h4M48 19h1M11 20h1M16 20h1M44 20h1M46 20h1M48 20h1M14 21h1M16 21h2M48 21h1M13 22h2M16 22h1M46 22h1M48 22h2M45 23h2M48 23h1" />
<path stroke="#ffffff" d="M14 17h1M16 17h1M15 18h1M46 18h1M48 18h1M15 19h1M47 19h1M15 20h1M47 20h1M15 21h1M47 21h1M15 22h1M47 22h1M13 23h5M47 23h1M45 24h5" />
<path stroke="#383838" d="M17 17h1M17 18h1M49 18h2M17 19h3M49 19h4M17 20h1M19 20h1M49 20h2M49 21h1" />
<path stroke="#535353" d="M18 18h1M51 18h1" />
<path stroke="#3d3d3d" d="M11 19h1M13 19h1M42 19h1M13 20h2M45 20h1M13 21h1M45 21h2M17 22h1M45 22h1M49 23h1" />
<path stroke="#1c1c1c" d="M12 20h1M18 20h1M12 21h1M18 21h1M44 21h1M50 21h1M12 22h1M18 22h1M44 22h1M50 22h1M44 23h1M50 23h1" />
<path stroke="#1b1b1b" d="M20 20h1" />
<path stroke="#919191" d="M12 23h1M44 24h1" />
<path stroke="#6c6c6c" d="M18 23h1M50 24h1" />
<path stroke="#523f3d" d="M12 25h6M12 26h2M16 26h2M44 26h6M12 27h2M16 27h2M44 27h2M48 27h2M12 28h2M16 28h2M44 28h2M48 28h2" />
<path stroke="#796663" d="M18 25h1M14 26h1M18 26h1M50 26h1M14 27h1M18 27h1M46 27h1M50 27h1M14 28h1M18 28h1M46 28h1M50 28h1" />
</svg>