<svg xmlns="http://www.w3.org/2000/svg" viewBox="0 -0.5 64 32" shape-rendering="crispEdges">
<metadata>Made with Pixels to Svg https://codepen.io/shshaw/pen/XbxvNj</metadata>
<path stroke="#1c1917" d="M12 5h1M14 5h2M17 5h2M11 6h1M13 6h1M15 6h5M44 6h1M46 6h2M49 6h2M10 7h1M12 7h3M16 7h3M20 7h1M43 7h1M45 7h1M47 7h5M10 8h6M17 8h4M42 8h1M44 8h3M48 8h3M52 8h1M12 9h1M19 9h2M42 9h6M49 9h4M10 10h1M19 10h1M44 10h1M51 10h2M42 11h1M51 11h1" />
<path stroke="#262321" d="M13 5h1M14 6h1M45 6h1M11 7h1M19 7h1M46 7h1M43 8h1M51 8h1M11 9h1M18 9h1M43 10h1M50 10h1" />
<path stroke="#121010" d="M16 5h1M12 6h1M48 6h1M15 7h1M44 7h1M16 8h1M47 8h1M10 9h1M48 9h1M11 10h1M20 10h1M42 10h1M43 11h1M52 11h1" />
<path stroke="#f7dfc4" d="M13 9h5M12 10h7M45 10h5M14 11h3M44 11h7M10 12h1M12 12h1M18 12h1M20 12h1M46 12h3M15 13h1M42 13h1M44 13h2M49 13h2M52 13h1M12 14h2M16 14h3M13 15h5M44 15h2M49 15h2M45 16h1M49 16h3M15 17h1M51 17h2M47 18h1M52 18h1M11 19h1M19 19h1M43 19h1M51 19h1M11 20h1M19 20h1M42 20h2M11 21h1M41 21h2M11 22h1M40 22h2M10 23h2M16 28h2M48 28h2" />
<path stroke="#ebc296" d="M10 11h1M20 11h1M42 12h1M52 12h1M14 16h3M46 17h3" />
<path stroke="#ffffff" d="M11 11h1M19 11h1M11 12h1M15 12h1M19 12h1M43 12h1M51 12h1M12 13h3M16 13h3M43 13h1M47 13h1M51 13h1M44 14h2" />
<path stroke="#0f0700" d="M12 11h2M17 11h2M44 12h2M49 12h2" />
<path stroke="#1f1103" d="M13 12h1M17 12h1" />
<path stroke="#ecb596" d="M14 12h1M16 12h1M46 13h1M48 13h1" />
<path stroke="#000000" d="M10 13h2M19 13h2M11 14h1M19 14h1M42 14h2M49 14h4M12 15h1M18 15h1M43 15h1M48 15h1M51 15h1M13 16h1M17 16h1M44 16h1M48 16h1M52 16h1M45 17h1M49 17h2M53 17h1M11 18h1M19 18h1M43 18h1M50 18h2M53 18h1M10 19h1M20 19h1M42 19h1M52 19h1M10 20h1M20 20h1M41 20h1M51 20h1M10 21h1M40 21h1M43 21h1M50 21h1M9 22h2M39 22h1M42 22h1M50 22h1M9 23h1M22 23h1M39 23h3M50 23h1M9 24h4M18 24h1M22 24h1M50 24h1M12 25h1M18 25h1M44 25h1M50 25h1M12 26h1M15 26h1M18 26h1M44 26h1M47 26h1M50 26h1M12 27h1M15 27h1M18 27h1M44 27h1M47 27h1M50 27h1M12 28h1M15 28h1M18 28h1M44 28h1M47 28h1M50 28h1" />
<path stroke="#f4a67a" d="M14 14h2" />
<path stroke="#e97f0c" d="M46 14h3M46 15h2M46 16h2M12 17h1M18 17h1M12 18h1M18 18h1M44 18h1M12 19h1M18 19h1M44 19h1M50 19h1M44 20h1M50 20h1M19 21h3M19 22h3M19 23h3M19 24h3" />
<path stroke="#92f836" d="M13 17h1M17 18h1M45 18h1M14 19h1M49 19h1M46 20h1M17 21h1M49 22h1M14 23h1M46 24h1" />
<path stroke="#74ea0b" d="M14 17h1M17 17h1M14 18h3M46 18h1M49 18h1M13 19h1M15 19h1M17 19h1M46 19h3M13 20h5M45 20h1M47 20h1M49 20h1M15 21h2M45 21h5M13 22h5M47 22h2M13 23h1M15 23h2M45 23h5M45 24h1M47 24h2" />
<path stroke="#70de0d" d="M16 17h1M13 18h1M48 18h1M16 19h1M45 19h1M48 20h1M14 21h1M46 22h1" />
<path stroke="#4da300" d="M12 20h1M18 20h1M12 21h1M18 21h1M44 21h1M12 22h1M18 22h1M44 22h1M12 23h1M18 23h1M44 23h1M44 24h1" />
<path stroke="#b3f836" d="M13 21h1M45 22h1M17 23h1M49 24h1" />
<path stroke="#363333" d="M13 24h1M16 25h1M45 25h1M14 26h1M46 26h1M13 27h1M17 27h1M45 27h1M49 27h1" />
<path stroke="#242424" d="M14 24h3M13 25h3M17 25h1M46 25h3M16 26h2M48 26h2M14 27h1M16 27h1M46 27h1M48 27h1" />
<path stroke="#1a1919" d="M17 24h1M49 25h1M13 26h1M45 26h1" />
<path stroke="#ecc000" d="M13 28h1M45 28h1" />
<path stroke="#ec9300" d="M14 28h1M46 28h1" />
<path stroke="#f0f0f0" d="M11 29h3M17 29h3M43 29h3M49 29h3M13 30h2M16 30h2M45 30h2M48 30h2" />
<path stroke="#dddddd" d="M14 29h1M16 29h1M46 29h1M48 29h1M12 30h1M18 30h1M44 30h1M50 30h1" />
<path stroke="#c8c8c8" d="M15 29h1M47 29h1M15 30h1M47 30h1" />
<path stroke="#f8f8f8" d="M11 30h1M19 30h1M43 30h1M51 30h1" />
</svg>