<svg xmlns="http://www.w3.org/2000/svg" viewBox="0 -0.5 128 32" shape-rendering="crispEdges">
<metadata>Made with Pixels to Svg https://codepen.io/shshaw/pen/XbxvNj</metadata>
<path stroke="#0a0804" d="M12 5h7M76 5h7M11 6h4M16 6h4M45 6h7M75 6h4M80 6h4M107 6h7M10 7h2M13 7h3M17 7h1M19 7h2M44 7h4M49 7h4M74 7h2M77 7h3M81 7h1M83 7h2M106 7h4M111 7h4M10 8h1M12 8h3M16 8h3M20 8h1M43 8h2M46 8h3M50 8h1M52 8h2M74 8h1M76 8h3M80 8h3M84 8h1M105 8h2M108 8h3M112 8h1M114 8h2M10 9h2M13 9h1M15 9h1M17 9h1M19 9h3M43 9h1M45 9h3M49 9h3M53 9h1M74 9h2M77 9h1M79 9h1M81 9h1M83 9h3M105 9h1M107 9h3M111 9h3M115 9h1M9 10h1M12 10h1M16 10h1M18 10h1M20 10h2M43 10h2M46 10h1M48 10h1M50 10h1M52 10h3M73 10h1M76 10h1M80 10h1M82 10h1M84 10h2M105 10h2M108 10h1M110 10h1M112 10h1M114 10h3M21 11h1M42 11h1M45 11h1M49 11h1M51 11h1M53 11h2M85 11h1M104 11h1M107 11h1M111 11h1M113 11h1M115 11h2M9 12h1M21 12h1M54 12h1M73 12h1M85 12h1M116 12h1M42 13h1M54 13h1M104 13h1M116 13h1M10 14h1M20 14h1M74 14h1M84 14h1M43 15h1M53 15h1M105 15h1M115 15h1" />
<path stroke="#1d130a" d="M15 6h1M79 6h1M12 7h1M16 7h1M18 7h1M48 7h1M76 7h1M80 7h1M82 7h1M110 7h1M11 8h1M15 8h1M19 8h1M45 8h1M49 8h1M51 8h1M75 8h1M79 8h1M83 8h1M107 8h1M111 8h1M113 8h1M12 9h1M18 9h1M44 9h1M48 9h1M52 9h1M76 9h1M82 9h1M106 9h1M110 9h1M114 9h1M11 10h1M19 10h1M45 10h1M51 10h1M75 10h1M83 10h1M107 10h1M113 10h1M44 11h1M52 11h1M106 11h1M114 11h1" />
<path stroke="#2f2116" d="M9 9h1M73 9h1M10 10h1M42 10h1M74 10h1M104 10h1M9 11h1M43 11h1M73 11h1M105 11h1M42 12h1M104 12h1" />
<path stroke="#eac9a1" d="M14 9h1M16 9h1M78 9h1M80 9h1M13 10h3M17 10h1M47 10h1M49 10h1M77 10h3M81 10h1M109 10h1M111 10h1M15 11h1M46 11h3M50 11h1M79 11h1M108 11h3M112 11h1M10 12h1M20 12h1M48 12h1M74 12h1M84 12h1M110 12h1M15 13h1M43 13h1M53 13h1M79 13h1M105 13h1M115 13h1M12 14h2M16 14h3M48 14h1M76 14h2M80 14h3M110 14h1M13 15h5M45 15h2M49 15h3M77 15h5M107 15h2M111 15h3M46 16h5M108 16h5M15 17h1M79 17h1M19 20h1M42 20h2M53 20h2M83 20h1M104 20h2M115 20h2M11 21h1M19 21h1M41 21h2M54 21h2M75 21h1M83 21h1M103 21h2M116 21h2M11 22h1M19 22h1M75 22h1M83 22h1M10 23h2M19 23h2M74 23h2M83 23h2" />
<path stroke="#be9463" d="M10 11h1M20 11h1M74 11h1M84 11h1M43 12h1M53 12h1M105 12h1M115 12h1M14 16h3M78 16h3M48 17h1M110 17h1" />
<path stroke="#3d2f1f" d="M11 11h1M19 11h1M75 11h1M83 11h1M11 12h1M19 12h1M44 12h1M52 12h1M75 12h1M83 12h1M106 12h1M114 12h1M44 13h1M52 13h1M106 13h1M114 13h1" />
<path stroke="#cbbda4" d="M12 11h1M14 11h1M16 11h1M18 11h1M76 11h1M78 11h1M80 11h1M82 11h1M12 12h1M18 12h1M45 12h1M47 12h1M49 12h1M51 12h1M76 12h1M82 12h1M107 12h1M109 12h1M111 12h1M113 12h1M45 13h1M51 13h1M107 13h1M113 13h1" />
<path stroke="#322f2e" d="M13 11h1M17 11h1M77 11h1M81 11h1M46 12h1M50 12h1M108 12h1M112 12h1" />
<path stroke="#383635" d="M13 12h1M17 12h1M77 12h1M81 12h1M46 13h1M50 13h1M108 13h1M112 13h1" />
<path stroke="#be987d" d="M14 12h1M16 12h1M78 12h1M80 12h1M47 13h1M49 13h1M109 13h1M111 13h1" />
<path stroke="#453022" d="M15 12h1M79 12h1M12 13h1M18 13h1M48 13h1M76 13h1M82 13h1M110 13h1M45 14h1M51 14h1M107 14h1M113 14h1" />
<path stroke="#000000" d="M10 13h2M19 13h2M74 13h2M83 13h2M11 14h1M19 14h1M43 14h2M52 14h2M75 14h1M83 14h1M105 14h2M114 14h2M12 15h1M18 15h1M44 15h1M52 15h1M76 15h1M82 15h1M106 15h1M114 15h1M13 16h1M17 16h1M45 16h1M51 16h1M77 16h1M81 16h1M107 16h1M113 16h1M12 17h1M18 17h1M44 17h2M51 17h2M76 17h1M82 17h1M106 17h2M113 17h2M11 18h1M19 18h1M43 18h1M53 18h1M75 18h1M83 18h1M105 18h1M115 18h1M10 19h1M20 19h1M42 19h1M54 19h1M74 19h1M84 19h1M104 19h1M116 19h1M10 20h1M20 20h1M41 20h1M44 20h1M52 20h1M55 20h1M74 20h1M84 20h1M103 20h1M106 20h1M114 20h1M117 20h1M10 21h1M20 21h1M40 21h1M43 21h1M53 21h1M56 21h1M74 21h1M84 21h1M102 21h1M105 21h1M115 21h1M118 21h1M9 22h2M20 22h2M40 22h3M54 22h3M73 22h2M84 22h2M102 22h3M116 22h3M9 23h1M21 23h1M73 23h1M85 23h1M9 24h4M18 24h4M73 24h4M82 24h4M12 25h1M18 25h1M45 25h1M51 25h1M76 25h1M82 25h1M107 25h1M113 25h1M12 26h1M15 26h1M18 26h1M45 26h1M48 26h1M51 26h1M76 26h1M79 26h1M82 26h1M107 26h1M110 26h1M113 26h1M12 27h1M15 27h1M18 27h1M45 27h1M48 27h1M51 27h1M76 27h1M79 27h1M82 27h1M107 27h1M110 27h1M113 27h1M12 28h1M15 28h1M18 28h1M45 28h1M48 28h1M51 28h1M76 28h1M79 28h1M82 28h1M107 28h1M110 28h1M113 28h1M13 29h1M15 29h2M18 29h1M46 29h1M48 29h2M51 29h1M77 29h1M79 29h2M82 29h1M108 29h1M110 29h2M113 29h1M11 30h1M13 30h1M15 30h2M19 30h1M44 30h1M46 30h1M48 30h2M52 30h1M75 30h1M77 30h1M79 30h2M83 30h1M106 30h1M108 30h1M110 30h2M114 30h1" />
<path stroke="#4b4033" d="M13 13h2M16 13h2M77 13h2M80 13h2M46 14h2M49 14h2M108 14h2M111 14h2" />
<path stroke="#c7805d" d="M14 14h2M78 14h2M47 15h2M109 15h2" />
<path stroke="#1e2d5b" d="M13 17h1M17 17h1M46 17h2M49 17h2M77 17h1M81 17h1M108 17h2M111 17h2M12 18h1M14 18h3M18 18h1M45 18h1M47 18h3M51 18h1M76 18h1M78 18h3M82 18h1M107 18h1M109 18h3M113 18h1M11 19h4M16 19h4M44 19h4M49 19h4M75 19h4M80 19h4M106 19h4M111 19h4M13 20h1M46 20h1M77 20h1M108 20h1M14 21h1M17 21h1M47 21h1M50 21h1M78 21h1M81 21h1M109 21h1M112 21h1M13 22h1M15 22h3M46 22h1M48 22h3M77 22h1M79 22h3M108 22h1M110 22h3M14 23h3M47 23h3M78 23h3M109 23h3" />
<path stroke="#1e294e" d="M14 17h1M16 17h1M78 17h1M80 17h1M13 18h1M17 18h1M44 18h1M46 18h1M50 18h1M52 18h1M77 18h1M81 18h1M106 18h1M108 18h1M112 18h1M114 18h1M17 20h1M50 20h1M81 20h1M112 20h1M13 21h1M16 21h1M46 21h1M49 21h1M77 21h1M80 21h1M108 21h1M111 21h1M14 22h1M47 22h1M78 22h1M109 22h1M17 23h1M50 23h1M81 23h1M112 23h1" />
<path stroke="#bdbdbd" d="M15 19h1M48 19h1M79 19h1M110 19h1M14 20h1M16 20h1M47 20h1M49 20h1M78 20h1M80 20h1M109 20h1M111 20h1" />
<path stroke="#162451" d="M43 19h1M53 19h1M105 19h1M115 19h1" />
<path stroke="#192244" d="M11 20h1M75 20h1" />
<path stroke="#0e152b" d="M12 20h1M18 20h1M45 20h1M51 20h1M76 20h1M82 20h1M107 20h1M113 20h1M12 21h1M18 21h1M45 21h1M51 21h1M76 21h1M82 21h1M107 21h1M113 21h1M12 22h1M18 22h1M45 22h1M51 22h1M76 22h1M82 22h1M107 22h1M113 22h1M12 23h1M18 23h1M45 23h1M51 23h1M76 23h1M82 23h1M107 23h1M113 23h1M13 24h5M45 24h7M77 24h5M107 24h7" />
<path stroke="#cccccc" d="M15 20h1M48 20h1M79 20h1M110 20h1" />
<path stroke="#263462" d="M15 21h1M48 21h1M79 21h1M110 21h1M13 23h1M46 23h1M77 23h1M108 23h1" />
<path stroke="#202020" d="M13 25h1M17 25h1M46 25h1M50 25h1M77 25h1M81 25h1M108 25h1M112 25h1M13 28h2M16 28h2M46 28h2M49 28h2M77 28h2M80 28h2M108 28h2M111 28h2" />
<path stroke="#131313" d="M14 25h3M47 25h3M78 25h3M109 25h3M13 26h2M16 26h2M46 26h2M49 26h2M77 26h2M80 26h2M108 26h2M111 26h2M13 27h2M16 27h2M46 27h2M49 27h2M77 27h2M80 27h2M108 27h2M111 27h2" />
<path stroke="#0c0c0c" d="M11 29h2M14 29h1M19 29h1M44 29h2M47 29h1M52 29h1M75 29h2M78 29h1M83 29h1M106 29h2M109 29h1M114 29h1M12 30h1M14 30h1M17 30h2M45 30h1M47 30h1M50 30h2M76 30h1M78 30h1M81 30h2M107 30h1M109 30h1M112 30h2" />
<path stroke="#1b1b1b" d="M17 29h1M50 29h1M81 29h1M112 29h1" />
</svg>