<svg xmlns="http://www.w3.org/2000/svg" viewBox="0 -0.5 64 32" shape-rendering="crispEdges">
<metadata>Made with Pixels to Svg https://codepen.io/shshaw/pen/XbxvNj</metadata>
<path stroke="#542402" d="M12 6h7M11 7h2M14 7h6M44 7h7M10 8h1M13 8h3M17 8h1M19 8h2M43 8h2M46 8h6M11 9h2M17 9h2M20 9h1M42 9h1M45 9h3M49 9h1M51 9h2M10 10h2M19 10h1M21 10h1M43 10h2M49 10h2M52 10h1M9 11h1M13 11h1M17 11h1M42 11h2M51 11h1M53 11h1M41 12h1M45 12h1M49 12h1M21 13h1M9 14h1M19 14h1M53 14h1M9 15h1M20 15h1M41 15h1M51 15h1M11 16h2M18 16h2M52 16h1M43 17h2M50 17h2" />
<path stroke="#653107" d="M13 7h1M12 8h1M45 8h1M13 9h1M44 9h1M20 10h1M45 10h1M21 11h1M52 11h1M9 12h1M21 12h1M53 12h1M9 13h1M20 13h1M41 13h1M53 13h1M10 14h1M21 14h1M41 14h1M52 14h1M11 15h1M21 15h1M42 15h1M53 15h1M10 16h1M43 16h1M53 16h1M42 17h1" />
<path stroke="#391400" d="M11 8h1M18 8h1M10 9h1M19 9h1M43 9h1M50 9h1M9 10h1M18 10h1M42 10h1M51 10h1M11 11h1M19 11h1M41 11h1M50 11h1M11 12h1M19 12h1M43 12h1M51 12h1M10 13h1M19 13h1M43 13h1M51 13h1M11 14h1M20 14h1M42 14h1M51 14h1M10 15h1M19 15h1M43 15h1M52 15h1M42 16h1M51 16h1" />
<path stroke="#fad7b4" d="M16 8h1M14 9h3M48 9h1M13 10h5M46 10h3M10 11h1M12 11h1M14 11h3M18 11h1M20 11h1M45 11h5M10 12h1M12 12h1M18 12h1M42 12h1M44 12h1M46 12h3M50 12h1M52 12h1M13 13h5M42 13h1M44 13h1M50 13h1M12 14h3M16 14h3M45 14h5M13 15h5M44 15h3M48 15h3M45 16h2M48 16h2M40 17h1M39 18h2M39 19h4M11 20h1M19 20h1M11 21h1M19 21h1M51 21h1M11 22h1M19 22h1M51 22h1M10 23h2M19 23h2M51 23h1M51 24h2" />
<path stroke="#542703" d="M12 10h1M44 11h1M20 16h1M52 17h1" />
<path stroke="#7c3e0b" d="M13 12h1M17 12h1M45 13h1M49 13h1" />
<path stroke="#eeb19b" d="M14 12h3M12 13h1M18 13h1M46 13h3M44 14h1M50 14h1" />
<path stroke="#f7deac" d="M20 12h1M52 13h1M15 17h1M47 18h1" />
<path stroke="#361200" d="M11 13h1M43 14h1" />
<path stroke="#eca58c" d="M15 14h1" />
<path stroke="#170400" d="M12 15h1M18 15h1M13 16h1M17 16h1M44 16h1M50 16h1M45 17h1M49 17h1" />
<path stroke="#e5967c" d="M47 15h1M47 16h1" />
<path stroke="#efb686" d="M14 16h3M46 17h3" />
<path stroke="#000000" d="M40 16h2M12 17h1M18 17h1M39 17h1M41 17h1M11 18h1M19 18h1M38 18h1M41 18h4M50 18h1M10 19h1M20 19h1M38 19h1M51 19h1M10 20h1M20 20h1M39 20h5M52 20h1M10 21h1M20 21h1M44 21h1M52 21h1M9 22h2M20 22h2M44 22h1M52 22h1M9 23h1M12 23h1M18 23h1M21 23h1M44 23h1M52 23h2M9 24h4M18 24h4M44 24h1M50 24h1M53 24h1M12 25h1M18 25h1M44 25h1M50 25h4M12 26h1M15 26h1M18 26h1M44 26h1M47 26h1M50 26h1M12 27h1M15 27h1M18 27h1M44 27h1M47 27h1M50 27h1M12 28h1M15 28h1M18 28h1M44 28h1M47 28h1M50 28h1M12 29h7M44 29h7M12 30h2M15 30h1M17 30h2M44 30h2M47 30h1M49 30h2" />
<path stroke="#ffaf12" d="M13 17h2M16 17h2M45 18h2M48 18h2M11 19h9M43 19h1M45 20h7M13 21h5M45 22h5" />
<path stroke="#dcdcd5" d="M12 18h7M44 19h7M13 20h5M45 21h5M13 22h5M45 23h5" />
<path stroke="#c27200" d="M12 20h1M18 20h1M44 20h1M12 21h1M18 21h1M50 21h1M12 22h1M18 22h1M50 22h1M50 23h1" />
<path stroke="#2a76ae" d="M13 23h5M45 24h5" />
<path stroke="#0095da" d="M13 24h1M16 24h1M16 25h1M45 25h1M48 25h1M14 26h1M46 26h1M13 28h1M17 28h1M45 28h1M49 28h1" />
<path stroke="#00a7f1" d="M14 24h1M17 24h1M15 25h1M46 25h1M49 25h1M13 26h1M16 26h2M45 26h1M48 26h2" />
<path stroke="#00a8ff" d="M15 24h1M13 25h2M17 25h1M47 25h1M13 27h2M16 27h2M45 27h2M48 27h2M14 28h1M16 28h1M46 28h1M48 28h1" />
<path stroke="#ffffeb" d="M11 29h1M19 29h1M43 29h1M51 29h1M11 30h1M14 30h1M16 30h1M19 30h1M43 30h1M46 30h1M48 30h1M51 30h1" />
</svg>