<svg xmlns="http://www.w3.org/2000/svg" viewBox="0 -0.5 128 32" shape-rendering="crispEdges">
<metadata>Made with Pixels to Svg https://codepen.io/shshaw/pen/XbxvNj</metadata>
<path stroke="#000000" d="M12 10h7M10 11h2M19 11h2M44 11h7M108 11h7M9 12h1M21 12h1M42 12h2M51 12h2M76 12h7M106 12h2M115 12h2M8 13h1M22 13h1M41 13h1M53 13h1M74 13h2M83 13h2M105 13h1M117 13h1M8 14h1M22 14h1M40 14h1M54 14h1M72 14h2M85 14h2M104 14h1M118 14h1M7 15h1M23 15h1M40 15h1M54 15h1M71 15h1M87 15h1M104 15h1M118 15h1M7 16h1M23 16h1M39 16h1M55 16h1M71 16h1M87 16h1M103 16h1M119 16h1M7 17h1M23 17h1M39 17h1M55 17h1M70 17h1M88 17h1M103 17h1M119 17h1M7 18h1M23 18h1M38 18h1M56 18h1M70 18h1M88 18h1M102 18h1M120 18h1M7 19h1M23 19h1M38 19h1M56 19h1M70 19h1M88 19h1M102 19h1M120 19h1M7 20h1M23 20h1M39 20h1M55 20h1M70 20h1M88 20h1M103 20h1M119 20h1M7 21h1M23 21h1M39 21h1M55 21h1M71 21h1M87 21h1M103 21h1M119 21h1M8 22h1M22 22h1M40 22h1M54 22h1M72 22h1M86 22h1M104 22h1M118 22h1M9 23h13M41 23h13M73 23h13M105 23h13" />
<path stroke="#00c2eb" d="M12 11h7M19 12h2M44 12h7M108 12h7M16 13h2M21 13h1M51 13h2M76 13h7M115 13h2M11 14h3M21 14h1M48 14h2M53 14h1M83 14h2M112 14h2M117 14h1M11 15h2M22 15h1M43 15h2M53 15h1M75 15h2M85 15h2M107 15h2M117 15h1M22 16h1M43 16h2M54 16h1M75 16h2M86 16h1M107 16h2M118 16h1M22 17h1M54 17h1M87 17h1M118 17h1M22 18h1M55 18h1M87 18h1M119 18h1M22 19h1M55 19h1M87 19h1M119 19h1" />
<path stroke="#0099cd" d="M10 12h9M9 13h7M18 13h3M42 13h9M106 13h9M9 14h2M14 14h7M41 14h7M50 14h3M74 14h9M105 14h7M114 14h3M8 15h3M13 15h9M41 15h2M45 15h8M72 15h3M77 15h8M105 15h2M109 15h8M8 16h7M16 16h3M20 16h2M40 16h3M45 16h9M72 16h3M77 16h9M104 16h3M109 16h9M8 17h1M10 17h5M16 17h3M20 17h2M40 17h7M48 17h3M52 17h2M71 17h8M80 17h3M84 17h3M104 17h7M112 17h3M116 17h2M8 18h1M10 18h5M16 18h3M20 18h2M39 18h1M41 18h6M48 18h3M52 18h3M71 18h1M73 18h6M80 18h3M84 18h3M103 18h1M105 18h6M112 18h3M116 18h3M8 19h1M10 19h12M39 19h1M42 19h5M48 19h3M52 19h3M71 19h1M74 19h5M80 19h3M84 19h3M103 19h1M106 19h5M112 19h3M116 19h3M8 20h1M11 20h12M40 20h1M43 20h12M71 20h2M75 20h13M104 20h1M107 20h12M8 21h2M15 21h8M40 21h2M47 21h8M72 21h2M79 21h8M104 21h2M111 21h8M9 22h13M41 22h13M73 22h13M105 22h13" />
<path stroke="#c0fdff" d="M15 16h1M19 16h1M15 17h1M19 17h1M47 17h1M51 17h1M79 17h1M83 17h1M111 17h1M115 17h1M15 18h1M19 18h1M47 18h1M51 18h1M79 18h1M83 18h1M111 18h1M115 18h1M47 19h1M51 19h1M79 19h1M83 19h1M111 19h1M115 19h1" />
<path stroke="#0469af" d="M9 17h1M9 18h1M40 18h1M72 18h1M104 18h1M9 19h1M40 19h2M72 19h2M104 19h2M9 20h2M41 20h2M73 20h2M105 20h2M10 21h5M42 21h5M74 21h5M106 21h5" />
</svg>