<svg xmlns="http://www.w3.org/2000/svg" viewBox="0 -0.5 64 32" shape-rendering="crispEdges">
<metadata>Made with Pixels to Svg https://codepen.io/shshaw/pen/XbxvNj</metadata>
<path stroke="#ffa859" d="M53 2h1M52 3h3M53 4h1M56 8h1M55 9h3M56 10h1M38 13h1M37 14h3M38 15h1" />
<path stroke="#000000" d="M12 3h1M11 4h4M44 4h1M10 5h7M43 5h4M9 6h3M42 6h7M9 7h3M41 7h3M9 8h3M19 8h1M41 8h3M9 9h3M19 9h1M41 9h3M51 9h1M9 10h3M19 10h1M41 10h3M51 10h1M10 11h2M19 11h2M41 11h3M51 11h1M11 12h1M13 12h2M16 12h2M19 12h1M42 12h2M51 12h2M11 13h2M18 13h2M43 13h1M45 13h2M48 13h2M51 13h1M12 14h7M43 14h2M50 14h2M13 15h1M44 15h7M12 16h1M45 16h1M11 17h1M44 17h1M10 18h1M20 18h1M43 18h1M10 19h1M20 19h1M42 19h1M52 19h1M10 20h1M20 20h1M42 20h1M52 20h1M10 21h1M12 21h1M18 21h1M20 21h1M42 21h1M44 21h3M48 21h5M9 22h6M16 22h6M42 22h1M46 22h1M48 22h1M52 22h1M9 23h1M12 23h1M18 23h1M21 23h1M42 23h3M46 23h1M48 23h1M50 23h3M9 24h4M15 24h1M18 24h4M44 24h7M12 25h1M15 25h1M18 25h1M44 25h1M47 25h1M50 25h1M12 26h1M15 26h1M18 26h1M44 26h1M47 26h1M50 26h1M12 27h1M15 27h1M18 27h1M44 27h1M47 27h1M50 27h1M12 28h7M44 28h7M11 29h4M16 29h4M43 29h4M48 29h4M11 30h4M16 30h4M43 30h4M48 30h4" />
<path stroke="#2e2e2e" d="M13 3h6M15 4h5M45 4h6M17 5h4M47 5h5M19 6h3M49 6h4M19 7h3M51 7h3M20 8h2M51 8h3M20 9h2M52 9h2M20 10h2M52 10h2M52 11h2" />
<path stroke="#9d4f28" d="M12 6h1M44 7h1M12 11h1M12 12h1M44 12h1M13 13h1M44 13h1M45 14h1M15 15h1M47 16h1" />
<path stroke="#ad5b33" d="M13 6h6M15 7h1M45 7h6M15 8h1M47 8h1M47 9h1M15 10h1M13 11h6M47 11h1M15 12h1M18 12h1M45 12h6M14 13h4M47 13h1M50 13h1M46 14h4M49 22h1M10 23h2M19 23h2M49 23h1" />
<path stroke="#441e45" d="M12 7h3M16 7h3M12 8h1M14 8h1M16 8h1M18 8h1M44 8h3M48 8h3M12 9h1M14 9h3M18 9h1M44 9h1M46 9h1M48 9h1M50 9h1M12 10h3M16 10h3M44 10h1M46 10h3M50 10h1M44 11h3M48 11h3" />
<path stroke="#dcb19d" d="M13 8h1M17 8h1M45 9h1M49 9h1" />
<path stroke="#d5868f" d="M13 9h1M17 9h1M45 10h1M49 10h1" />
<path stroke="#9c4d28" d="M14 15h1M46 16h1M45 22h1M45 23h1" />
<path stroke="#ac5b33" d="M16 15h1M48 16h1" />
<path stroke="rgba(0,0,0,0.996078431372549)" d="M17 15h1M49 16h1" />
<path stroke="rgba(0,0,0,0.00392156862745098)" d="M18 15h1M19 16h1M50 16h1M51 17h1" />
<path stroke="rgba(172,106,52,0.9921568627450981)" d="M13 16h1M45 17h1" />
<path stroke="#ed914a" d="M14 16h1M46 17h1" />
<path stroke="#f79750" d="M15 16h1M47 17h1" />
<path stroke="rgba(255,167,98,0.996078431372549)" d="M16 16h1M48 17h1" />
<path stroke="rgba(255,169,99,0.9725490196078431)" d="M17 16h1M49 17h1" />
<path stroke="rgba(1,0,0,0.9725490196078431)" d="M18 16h1M50 17h1" />
<path stroke="rgba(166,101,53,0.984313725490196)" d="M12 17h1M44 18h1" />
<path stroke="#b76e39" d="M13 17h1M45 18h1" />
<path stroke="#db8646" d="M14 17h1M46 18h1" />
<path stroke="#f09451" d="M15 17h1" />
<path stroke="#fd9f57" d="M16 17h1M48 18h1" />
<path stroke="rgba(250,153,85,0.996078431372549)" d="M17 17h1M49 18h1" />
<path stroke="rgba(255,167,100,0.9725490196078431)" d="M18 17h1M50 18h1" />
<path stroke="rgba(0,0,0,0.9921568627450981)" d="M19 17h1M51 18h1" />
<path stroke="rgba(177,108,56,0.9921568627450981)" d="M11 18h1M43 19h1" />
<path stroke="#b16d39" d="M12 18h1M44 19h1" />
<path stroke="#c97841" d="M13 18h1M45 19h1" />
<path stroke="#d68346" d="M14 18h1" />
<path stroke="#e48c4b" d="M15 18h1" />
<path stroke="#f1944f" d="M16 18h1" />
<path stroke="#fd9b53" d="M17 18h1M49 19h1" />
<path stroke="#fe9b53" d="M18 18h1M50 19h1" />
<path stroke="rgba(255,159,83,0.996078431372549)" d="M19 18h1M51 19h1" />
<path stroke="#87225e" d="M47 18h1M46 19h1M48 19h1M47 20h1" />
<path stroke="#b56c38" d="M11 19h1M43 20h1" />
<path stroke="#b26b37" d="M12 19h1M44 20h1" />
<path stroke="#c8783f" d="M13 19h1M45 20h1" />
<path stroke="#d68045" d="M14 19h1M46 20h1" />
<path stroke="#dc8546" d="M15 19h1" />
<path stroke="#e38949" d="M16 19h1M48 20h1" />
<path stroke="#e88c4c" d="M17 19h1M49 20h1" />
<path stroke="#f7974f" d="M18 19h1M50 20h1" />
<path stroke="#ff9f53" d="M19 19h1M51 20h1" />
<path stroke="#ecdc00" d="M47 19h1" />
<path stroke="#b66e39" d="M11 20h1M11 21h1M43 21h1M43 22h2" />
<path stroke="#010000" d="M12 20h1" />
<path stroke="#cf7d42" d="M13 20h1" />
<path stroke="#d58044" d="M14 20h2M13 21h1M15 22h1" />
<path stroke="#d88145" d="M16 20h1" />
<path stroke="#ca753c" d="M17 20h1" />
<path stroke="#0d0401" d="M18 20h1" />
<path stroke="#ff9f55" d="M19 20h1M19 21h1M50 22h2" />
<path stroke="#d38044" d="M14 21h1" />
<path stroke="#d47f43" d="M15 21h1" />
<path stroke="#cf7e42" d="M16 21h1" />
<path stroke="#ce7c3f" d="M17 21h1" />
<path stroke="#58df52" d="M47 21h1M47 22h1M47 23h1" />
<path stroke="#8d1e3d" d="M13 23h1M14 24h1M13 25h1M45 25h1M14 26h1M46 26h1M13 27h1M45 27h1" />
<path stroke="#065c5b" d="M14 23h1M13 24h1M14 25h1M46 25h1M13 26h1M45 26h1M14 27h1M46 27h1" />
<path stroke="#aa244a" d="M15 23h1" />
<path stroke="#007071" d="M16 23h1M17 24h1M16 25h1M48 25h1M17 26h1M49 26h1M16 27h1M48 27h1" />
<path stroke="#cc2c5c" d="M17 23h1M16 24h1M17 25h1M49 25h1M16 26h1M48 26h1M17 27h1M49 27h1" />
</svg>