<svg xmlns="http://www.w3.org/2000/svg" viewBox="0 -0.5 64 32" shape-rendering="crispEdges">
<metadata>Made with Pixels to Svg https://codepen.io/shshaw/pen/XbxvNj</metadata>
<path stroke="#000000" d="M11 6h9M10 7h2M13 7h2M16 7h3M20 7h1M43 7h9M10 8h3M14 8h2M17 8h1M19 8h2M42 8h2M45 8h2M48 8h3M52 8h1M10 9h2M13 9h1M16 9h1M18 9h1M20 9h2M42 9h3M46 9h2M49 9h1M51 9h2M9 10h1M11 10h2M19 10h3M42 10h2M45 10h1M48 10h1M50 10h1M52 10h2M20 11h2M41 11h1M43 11h2M51 11h3M9 12h1M21 12h1M52 12h2M10 13h1M41 13h1M53 13h1M42 14h1M11 15h1M18 15h2M12 16h2M17 16h1M43 16h1M50 16h2M11 17h2M18 17h2M44 17h2M49 17h1M10 18h1M20 18h1M43 18h2M50 18h2M10 19h1M20 19h1M42 19h1M52 19h1M10 20h1M20 20h1M41 20h1M53 20h1M10 21h1M20 21h1M40 21h1M43 21h1M51 21h1M54 21h1M9 22h2M20 22h2M39 22h1M42 22h1M44 22h1M50 22h1M52 22h1M55 22h1M9 23h1M12 23h1M18 23h1M21 23h1M38 23h1M41 23h1M44 23h1M50 23h1M53 23h1M56 23h1M9 24h4M18 24h4M38 24h3M44 24h1M50 24h1M54 24h3M12 25h1M18 25h1M44 25h1M50 25h1M12 26h1M15 26h1M18 26h1M44 26h1M50 26h1M12 27h1M15 27h1M18 27h1M44 27h1M47 27h1M50 27h1M12 28h1M15 28h1M18 28h1M44 28h1M47 28h1M50 28h1M12 29h1M14 29h3M18 29h1M44 29h1M46 29h3M50 29h1M13 30h1M15 30h1M17 30h2M45 30h1M47 30h1M49 30h2" />
<path stroke="#270b00" d="M12 7h1M15 7h1M19 7h1M13 8h1M16 8h1M18 8h1M44 8h1M47 8h1M51 8h1M9 9h1M12 9h1M15 9h1M19 9h1M45 9h1M48 9h1M50 9h1M10 10h1M16 10h1M18 10h1M41 10h1M44 10h1M47 10h1M51 10h1M9 11h1M42 11h1M48 11h1M50 11h1M41 12h1M20 13h1M52 14h1M12 15h1M18 16h1M44 16h1M50 17h1" />
<path stroke="#d49762" d="M14 9h1M17 9h1M13 10h3M17 10h1M46 10h1M49 10h1M12 11h1M14 11h3M18 11h1M45 11h3M49 11h1M12 12h1M18 12h1M44 12h1M46 12h3M50 12h1M13 13h5M44 13h1M50 13h1M12 14h3M16 14h3M45 14h5M13 15h5M44 15h3M48 15h3M45 16h5M15 17h1M47 18h1M11 19h1M19 19h1M11 20h1M19 20h1M42 20h2M51 20h2M11 21h1M19 21h1M41 21h2M52 21h2M11 22h1M19 22h1M40 22h2M53 22h2M10 23h2M19 23h2M39 23h2M54 23h2" />
<path stroke="#391400" d="M10 11h2M19 11h1M10 12h1M20 12h1M42 12h2M51 12h1M42 13h1M52 13h1" />
<path stroke="#361200" d="M13 11h1M17 11h1M45 12h1M49 12h1" />
<path stroke="#b67435" d="M11 12h1M19 12h1M43 13h1M51 13h1M14 16h3M46 17h3" />
<path stroke="#542402" d="M13 12h1M17 12h1M45 13h1M49 13h1" />
<path stroke="#cb6c43" d="M14 12h3M12 13h1M18 13h1M46 13h3M44 14h1M50 14h1M11 18h1M19 18h1M43 19h1M51 19h1" />
<path stroke="#c3c3d3" d="M11 13h1M19 13h1M11 14h1M19 14h1M43 14h1M51 14h1M43 15h1M51 15h1" />
<path stroke="#a76145" d="M15 14h1M47 15h1" />
<path stroke="#2f6108" d="M13 17h1M17 17h1M13 18h2M16 18h2M45 18h1M49 18h1M13 19h2M16 19h2M45 19h2M48 19h2M13 20h1M15 20h1M17 20h1M45 20h2M48 20h2M13 21h2M16 21h2M45 21h1M47 21h1M49 21h1M45 22h2M48 22h2" />
<path stroke="#143f00" d="M14 17h1M16 17h1M12 18h1M15 18h1M18 18h1M46 18h1M48 18h1M12 19h1M18 19h1M44 19h1M47 19h1M50 19h1M12 20h1M18 20h1M44 20h1M50 20h1M12 21h1M18 21h1M44 21h1M50 21h1M12 22h7M45 23h5" />
<path stroke="#bfceb2" d="M15 19h1M14 20h1M16 20h1M47 20h1M15 21h1M46 21h1M48 21h1M47 22h1" />
<path stroke="#9f7554" d="M13 23h5M45 24h5" />
<path stroke="#c09e84" d="M13 24h3M13 25h1M16 25h2M45 25h3M14 26h1M16 26h1M46 26h1M48 26h1M16 27h2M48 27h2M13 28h2M45 28h2" />
<path stroke="#b08a6d" d="M16 24h1M14 25h1M48 25h1M13 27h1M45 27h1M17 28h1M49 28h1" />
<path stroke="#d6b59d" d="M17 24h1M15 25h1M49 25h1M13 26h1M17 26h1M45 26h1M47 26h1M49 26h1M14 27h1M46 27h1M16 28h1M48 28h1" />
<path stroke="#beb7b0" d="M11 29h1M19 29h1M43 29h1M51 29h1M11 30h1M14 30h1M16 30h1M19 30h1M43 30h1M46 30h1M48 30h1M51 30h1" />
<path stroke="#131313" d="M13 29h1M17 29h1M45 29h1M49 29h1M12 30h1M44 30h1" />
</svg>