<svg xmlns="http://www.w3.org/2000/svg" viewBox="0 -0.5 64 32" shape-rendering="crispEdges">
<metadata>Made with Pixels to Svg https://codepen.io/shshaw/pen/XbxvNj</metadata>
<path stroke="#4e2d29" d="M9 4h1M8 5h1M14 5h5M41 5h1M15 6h5M40 6h1M46 6h5M16 7h5M47 7h5M16 8h5M48 8h5M16 9h5M48 9h5M17 10h4M48 10h5M18 11h3M49 11h4M19 12h2M50 12h3M19 13h1M51 13h2M51 14h1" />
<path stroke="#000000" d="M12 4h7M11 5h1M19 5h1M44 5h7M10 6h1M20 6h1M43 6h1M51 6h1M9 7h1M21 7h1M42 7h1M52 7h1M9 8h1M21 8h1M41 8h1M53 8h1M9 9h1M21 9h1M41 9h1M53 9h1M9 10h1M21 10h1M41 10h1M53 10h1M9 11h1M11 11h1M15 11h1M21 11h1M41 11h1M53 11h1M9 12h1M21 12h1M41 12h1M43 12h1M47 12h1M53 12h1M10 13h2M20 13h1M41 13h1M53 13h1M11 14h1M19 14h1M42 14h2M52 14h1M12 15h1M18 15h1M43 15h1M51 15h1M11 16h1M13 16h1M17 16h1M19 16h1M44 16h1M50 16h1M12 17h1M14 17h3M18 17h1M43 17h1M45 17h1M49 17h1M51 17h1M11 18h1M19 18h1M42 18h1M46 18h3M52 18h1M10 19h1M20 19h1M41 19h1M53 19h1M10 20h1M12 20h1M18 20h1M20 20h1M39 20h2M43 20h1M51 20h1M54 20h2M10 21h1M12 21h1M18 21h1M20 21h1M39 21h1M42 21h3M50 21h3M55 21h1M9 22h2M12 22h1M18 22h1M20 22h2M39 22h6M50 22h6M9 23h1M12 23h1M18 23h1M21 23h1M44 23h1M50 23h1M9 24h13M44 24h1M50 24h1M12 25h1M18 25h1M44 25h7M12 26h1M15 26h1M18 26h1M44 26h1M47 26h1M50 26h1M12 27h1M15 27h1M18 27h1M44 27h1M47 27h1M50 27h1M12 28h1M15 28h1M18 28h1M44 28h1M47 28h1M50 28h1" />
<path stroke="#422621" d="M10 5h1M12 5h2M11 6h4M42 6h1M44 6h2M10 7h6M43 7h4M10 8h6M42 8h6M10 9h3M15 9h1M42 9h6M10 10h2M42 10h3M47 10h1M10 11h1M42 11h2M10 12h1M42 12h1M42 13h1" />
<path stroke="#f2c29d" d="M13 9h2M12 10h5M45 10h2M44 11h5M12 13h7M12 14h2M15 14h4M44 14h7M13 15h5M44 15h2M47 15h4M45 16h5M40 21h2M53 21h2M10 23h2M19 23h2" />
<path stroke="#f7d4b9" d="M12 11h1M14 11h1M16 11h1M12 12h1M18 12h1M44 12h1M46 12h1M48 12h1M44 13h1M50 13h1" />
<path stroke="#81605a" d="M13 11h1M17 11h1M45 12h1M49 12h1" />
<path stroke="#f6a07a" d="M11 12h1M15 12h1M43 13h1M47 13h1M14 14h1M46 15h1M14 16h3M46 17h3" />
<path stroke="#936862" d="M13 12h1M17 12h1M45 13h1M49 13h1" />
<path stroke="#fabca1" d="M14 12h1M16 12h1M46 13h1M48 13h1" />
<path stroke="#1a1a1a" d="M12 16h1M13 17h1M44 17h1M12 18h1M43 18h3M11 19h2M42 19h3M11 20h1M41 20h2M44 20h1M11 21h1M11 22h1M13 23h1M45 24h1" />
<path stroke="#424242" d="M18 16h1M50 17h1M19 21h1M19 22h1" />
<path stroke="#414141" d="M17 17h1M49 18h1M19 19h1M19 20h1" />
<path stroke="#1b1b1b" d="M13 18h1M45 19h1" />
<path stroke="#272727" d="M14 18h1M46 19h1M16 22h1M16 23h1M48 23h1M48 24h1" />
<path stroke="#282828" d="M15 18h1M47 19h1M17 21h1M17 22h1M49 22h1M17 23h1M49 23h1M49 24h1" />
<path stroke="#2a2b2b" d="M16 18h1M48 19h1" />
<path stroke="#353635" d="M17 18h1M49 19h1" />
<path stroke="#393936" d="M18 18h1M50 18h2M50 19h3M52 20h2" />
<path stroke="#1d1b1b" d="M13 19h1M45 20h1" />
<path stroke="#242424" d="M14 19h1M46 20h1M15 21h1M47 22h1" />
<path stroke="#282727" d="M15 19h1M47 20h1" />
<path stroke="#2a2a2a" d="M16 19h1M48 20h1" />
<path stroke="#ffffff" d="M17 19h1M16 20h1M49 20h1M48 21h1M17 29h1M19 29h1M49 29h1M51 29h1M16 30h1M19 30h1M48 30h1M51 30h1" />
<path stroke="#303231" d="M18 19h1M50 20h1" />
<path stroke="#1e1e1e" d="M13 20h1M45 21h1M15 23h1M47 24h1" />
<path stroke="#222323" d="M14 20h1M46 21h1" />
<path stroke="#262626" d="M15 20h1M47 21h1" />
<path stroke="#282a29" d="M17 20h1M49 21h1" />
<path stroke="#1c1c1c" d="M13 21h1M45 22h1" />
<path stroke="#1f1f20" d="M14 21h1M46 22h1" />
<path stroke="#282827" d="M16 21h1M48 22h1" />
<path stroke="#c5c5c5" d="M13 22h1M14 23h1M45 23h1M46 24h1" />
<path stroke="#1c1e1c" d="M14 22h1M46 23h1" />
<path stroke="#232323" d="M15 22h1M47 23h1" />
<path stroke="#47666e" d="M13 25h4M13 26h1M16 26h1M45 26h1M48 26h1M13 27h1M16 27h1M45 27h1M48 27h1M13 28h1M16 28h1M45 28h1M48 28h1" />
<path stroke="#697e83" d="M17 25h1M14 26h1M17 26h1M46 26h1M49 26h1M14 27h1M17 27h1M46 27h1M49 27h1M14 28h1M17 28h1M46 28h1M49 28h1" />
<path stroke="#efefef" d="M11 29h1M13 29h1M43 29h1M45 29h1M11 30h1M14 30h1M43 30h1M46 30h1" />
<path stroke="#eab143" d="M12 29h1M14 29h1M16 29h1M18 29h1M44 29h1M46 29h1M48 29h1M50 29h1M12 30h2M17 30h2M44 30h2M49 30h2" />
<path stroke="#b68319" d="M15 29h1M47 29h1M15 30h1M47 30h1" />
</svg>