<svg xmlns="http://www.w3.org/2000/svg" viewBox="0 -0.5 16 16" shape-rendering="crispEdges">
<metadata>Made with Pixels to Svg https://codepen.io/shshaw/pen/XbxvNj</metadata>
<path stroke="#000000" d="M1 0h14M0 1h2M14 1h2M0 2h1M15 2h1M0 3h1M15 3h1M0 4h1M3 4h10M15 4h1M0 5h1M2 5h1M13 5h1M15 5h1M0 6h1M2 6h1M13 6h1M15 6h1M0 7h1M2 7h1M13 7h1M15 7h1M0 8h1M2 8h1M13 8h1M15 8h1M0 9h1M2 9h1M13 9h1M15 9h1M0 10h1M2 10h1M13 10h1M15 10h1M0 11h1M3 11h1M5 11h8M15 11h1M0 12h1M4 12h1M15 12h1M0 13h1M15 13h1M0 14h2M14 14h2M1 15h14" />
<path stroke="#da563f" d="M2 1h12M1 2h13M1 3h13M1 4h2M13 4h1M1 5h1M1 6h1M1 7h1M1 8h1M1 9h1M1 10h1M1 11h2M13 11h1M1 12h3M5 12h9M1 13h12" />
<path stroke="#c63c32" d="M14 2h1M14 3h1M14 4h1M14 5h1M14 6h1M14 7h1M14 8h1M14 9h1M14 10h1M14 11h1M14 12h1M13 13h2M2 14h12" />
<path stroke="#fbfbfb" d="M3 5h10M3 6h10M3 7h10M3 8h10M3 9h10M3 10h10M4 11h1" />
</svg>