<svg xmlns="http://www.w3.org/2000/svg" viewBox="0 -0.5 16 16" shape-rendering="crispEdges">
<metadata>Made with Pixels to Svg https://codepen.io/shshaw/pen/XbxvNj</metadata>
<path stroke="#000000" d="M9 2h5M6 3h4M12 3h2M3 4h3M11 4h1M13 4h1M2 5h2M10 5h1M13 5h1M3 6h3M9 6h1M12 6h2M6 7h3M12 7h1M8 8h1M12 8h1M8 9h1M12 9h1M9 10h1M11 10h1M9 11h1M11 11h1M9 12h3M10 13h1" />
<path stroke="#f2f2f2" d="M10 3h2M6 4h5M4 5h6M6 6h3" />
<path stroke="#dbdbdb" d="M12 4h1M11 5h2M10 6h2M9 7h3M9 8h3M9 9h3M10 10h1M10 11h1" />
</svg>